<?xml version="1.0" encoding="UTF-8" standalone="no"?>
<!-- Created with Inkscape (http://www.inkscape.org/) -->

<svg
   version="1.1"
   id="svg25"
   xml:space="preserve"
   width="2047.429"
   height="1442.7397"
   viewBox="0 0 2047.429 1442.7397"
   sodipodi:docname="fibo.svg"
   inkscape:version="1.1.2 (0a00cf5339, 2022-02-04)"
   xmlns:inkscape="http://www.inkscape.org/namespaces/inkscape"
   xmlns:sodipodi="http://sodipodi.sourceforge.net/DTD/sodipodi-0.dtd"
   xmlns="http://www.w3.org/2000/svg"
   xmlns:svg="http://www.w3.org/2000/svg"><defs
     id="defs29" /><sodipodi:namedview
     id="namedview27"
     pagecolor="#ffffff"
     bordercolor="#666666"
     borderopacity="1.0"
     inkscape:pageshadow="2"
     inkscape:pageopacity="0.0"
     inkscape:pagecheckerboard="0"
     showgrid="false"
     inkscape:zoom="0.53024116"
     inkscape:cx="1023.1194"
     inkscape:cy="721.36987"
     inkscape:window-width="1850"
     inkscape:window-height="1016"
     inkscape:window-x="0"
     inkscape:window-y="0"
     inkscape:window-maximized="1"
     inkscape:current-layer="g31" /><g
     id="g31"
     inkscape:groupmode="layer"
     inkscape:label="fibo"
     transform="matrix(1.3333333,0,0,-1.3333333,0,1442.7397)"><g
       id="g33"><g
         id="g35"
         transform="matrix(1,0,0,-1,0,1082.0548)"><path
           d="m 928.805,81.266 c 0,28.66 -23.235,51.894 -51.895,51.894 -28.66,0 -51.89,-23.234 -51.89,-51.894 0,-28.661 23.23,-51.891 51.89,-51.891 28.66,0 51.895,23.23 51.895,51.891 z"
           style="fill:none;stroke:#000000;stroke-width:2.05483;stroke-linecap:round;stroke-linejoin:miter;stroke-miterlimit:4;stroke-dasharray:none;stroke-opacity:1"
           id="path37" /></g><path
         d="m 859.828,1006.387 c 0.719,0 1.004,0 1.004,0.68 0,0.359 -0.285,0.359 -0.93,0.359 h -2.906 c 0.684,3.691 1.184,6.238 1.473,7.387 0.215,0.859 0.965,1.683 1.898,1.683 0.754,0 1.508,-0.32 1.863,-0.644 -1.398,-0.145 -1.828,-1.184 -1.828,-1.793 0,-0.719 0.539,-1.149 1.219,-1.149 0.719,0 1.793,0.61 1.793,1.973 0,1.508 -1.504,2.332 -3.082,2.332 -1.543,0 -3.047,-1.148 -3.766,-2.547 -0.644,-1.254 -1.003,-2.547 -1.828,-7.242 h -2.402 c -0.68,0 -1.039,0 -1.039,-0.645 0,-0.394 0.215,-0.394 0.93,-0.394 h 2.296 c -0.644,-3.336 -2.117,-11.438 -2.941,-15.278 -0.609,-3.117 -1.148,-5.734 -2.941,-5.734 -0.106,0 -1.145,0 -1.789,0.68 1.828,0.144 1.828,1.722 1.828,1.758 0,0.718 -0.539,1.148 -1.219,1.148 -0.719,0 -1.793,-0.609 -1.793,-1.973 0,-1.543 1.578,-2.332 2.973,-2.332 3.66,0 5.164,6.563 5.558,8.356 0.645,2.762 2.403,12.297 2.582,13.375 z"
         style="fill:#000000;fill-opacity:1;fill-rule:nonzero;stroke:none"
         id="path39" /><path
         d="m 876.559,983.258 c 0,0.109 0,0.18 -0.61,0.789 -3.586,3.621 -5.594,9.539 -5.594,16.852 0,6.957 1.688,12.945 5.844,17.175 0.36,0.325 0.36,0.395 0.36,0.504 0,0.215 -0.18,0.285 -0.321,0.285 -0.468,0 -3.406,-2.582 -5.164,-6.093 -1.828,-3.621 -2.652,-7.461 -2.652,-11.871 0,-3.192 0.5,-7.457 2.363,-11.293 2.117,-4.305 5.059,-6.633 5.453,-6.633 0.141,0 0.321,0.07 0.321,0.285 z"
         style="fill:#000000;fill-opacity:1;fill-rule:nonzero;stroke:none"
         id="path41" /><path
         d="m 882.918,1004.449 c 0,9.071 4.41,10.508 6.348,10.508 1.289,0 2.582,-0.394 3.261,-1.473 -0.429,0 -1.793,0 -1.793,-1.468 0,-0.789 0.539,-1.469 1.473,-1.469 0.895,0 1.504,0.535 1.504,1.574 0,1.867 -1.363,3.696 -4.481,3.696 -4.519,0 -9.25,-4.625 -9.25,-12.516 0,-9.859 4.301,-12.082 7.348,-12.082 3.91,0 7.242,3.406 7.242,8.066 0,4.77 -3.332,7.961 -6.918,7.961 -3.191,0 -4.375,-2.762 -4.734,-3.765 z m 4.41,-12.261 c -2.258,0 -3.332,2.007 -3.656,2.761 -0.324,0.93 -0.68,2.688 -0.68,5.2 0,2.832 1.289,6.378 4.516,6.378 1.972,0 3.012,-1.324 3.551,-2.543 0.574,-1.328 0.574,-3.121 0.574,-4.664 0,-1.828 0,-3.441 -0.684,-4.8 -0.894,-1.723 -2.187,-2.332 -3.621,-2.332 z"
         style="fill:#000000;fill-opacity:1;fill-rule:nonzero;stroke:none"
         id="path43" /><path
         d="m 906.109,1000.899 c 0,2.726 -0.359,7.171 -2.367,11.332 -2.117,4.3 -5.054,6.632 -5.449,6.632 -0.145,0 -0.324,-0.07 -0.324,-0.285 0,-0.109 0,-0.179 0.609,-0.789 3.586,-3.621 5.594,-9.539 5.594,-16.851 0,-6.957 -1.684,-12.946 -5.844,-17.176 -0.359,-0.324 -0.359,-0.395 -0.359,-0.504 0,-0.215 0.179,-0.285 0.324,-0.285 0.465,0 3.406,2.582 5.164,6.094 1.828,3.66 2.652,7.531 2.652,11.832 z"
         style="fill:#000000;fill-opacity:1;fill-rule:nonzero;stroke:none"
         id="path45" /><path
         d="m 580.801,839.543 c 0.719,0 1.004,0 1.004,0.68 0,0.359 -0.285,0.359 -0.93,0.359 h -2.906 c 0.683,3.695 1.183,6.238 1.472,7.387 0.215,0.859 0.969,1.687 1.899,1.687 0.754,0 1.508,-0.324 1.863,-0.648 -1.398,-0.141 -1.828,-1.184 -1.828,-1.793 0,-0.715 0.539,-1.145 1.219,-1.145 0.719,0 1.793,0.61 1.793,1.969 0,1.508 -1.504,2.332 -3.082,2.332 -1.543,0 -3.047,-1.148 -3.766,-2.547 -0.644,-1.254 -1.004,-2.543 -1.828,-7.242 h -2.402 c -0.68,0 -1.039,0 -1.039,-0.644 0,-0.395 0.214,-0.395 0.933,-0.395 h 2.293 c -0.644,-3.336 -2.117,-11.437 -2.941,-15.273 -0.61,-3.121 -1.145,-5.739 -2.938,-5.739 -0.109,0 -1.148,0 -1.793,0.684 1.828,0.141 1.828,1.719 1.828,1.754 0,0.719 -0.539,1.148 -1.218,1.148 -0.719,0 -1.793,-0.609 -1.793,-1.972 0,-1.539 1.578,-2.328 2.976,-2.328 3.656,0 5.16,6.558 5.555,8.351 0.648,2.762 2.402,12.301 2.582,13.375 z"
         style="fill:#000000;fill-opacity:1;fill-rule:nonzero;stroke:none"
         id="path47" /><path
         d="m 597.531,816.418 c 0,0.106 0,0.176 -0.609,0.789 -3.586,3.621 -5.594,9.535 -5.594,16.852 0,6.953 1.688,12.941 5.848,17.172 0.355,0.324 0.355,0.394 0.355,0.503 0,0.215 -0.179,0.286 -0.32,0.286 -0.469,0 -3.406,-2.582 -5.164,-6.094 -1.828,-3.621 -2.652,-7.457 -2.652,-11.867 0,-3.192 0.5,-7.461 2.367,-11.297 2.113,-4.301 5.054,-6.633 5.449,-6.633 0.141,0 0.32,0.074 0.32,0.289 z"
         style="fill:#000000;fill-opacity:1;fill-rule:nonzero;stroke:none"
         id="path49" /><path
         d="m 604.07,845.676 c 1.543,-0.504 2.797,-0.539 3.192,-0.539 4.051,0 6.633,2.976 6.633,3.476 0,0.145 -0.071,0.325 -0.286,0.325 -0.07,0 -0.144,0 -0.464,-0.145 -2.008,-0.859 -3.731,-0.969 -4.665,-0.969 -2.363,0 -4.05,0.719 -4.73,1.004 -0.254,0.11 -0.324,0.11 -0.359,0.11 -0.289,0 -0.289,-0.215 -0.289,-0.789 V 837.5 c 0,-0.644 0,-0.859 0.433,-0.859 0.18,0 0.215,0.035 0.574,0.465 1.004,1.468 2.688,2.332 4.481,2.332 1.898,0 2.832,-1.758 3.117,-2.368 0.613,-1.398 0.648,-3.156 0.648,-4.519 0,-1.363 0,-3.406 -1.003,-5.02 -0.789,-1.289 -2.188,-2.187 -3.766,-2.187 -2.367,0 -4.699,1.613 -5.344,4.23 0.18,-0.07 0.395,-0.105 0.574,-0.105 0.61,0 1.579,0.359 1.579,1.578 0,1.004 -0.68,1.578 -1.579,1.578 -0.644,0 -1.578,-0.324 -1.578,-1.723 0,-3.046 2.438,-6.527 6.418,-6.527 4.051,0 7.602,3.406 7.602,7.961 0,4.266 -2.867,7.816 -6.633,7.816 -2.043,0 -3.621,-0.894 -4.555,-1.898 z"
         style="fill:#000000;fill-opacity:1;fill-rule:nonzero;stroke:none"
         id="path51" /><path
         d="m 627.082,834.059 c 0,2.722 -0.359,7.168 -2.367,11.328 -2.113,4.305 -5.055,6.633 -5.449,6.633 -0.145,0 -0.325,-0.071 -0.325,-0.286 0,-0.109 0,-0.179 0.61,-0.789 3.586,-3.621 5.594,-9.539 5.594,-16.851 0,-6.957 -1.684,-12.945 -5.844,-17.176 -0.36,-0.324 -0.36,-0.394 -0.36,-0.5 0,-0.215 0.18,-0.289 0.325,-0.289 0.464,0 3.406,2.582 5.164,6.098 1.828,3.656 2.652,7.527 2.652,11.832 z"
         style="fill:#000000;fill-opacity:1;fill-rule:nonzero;stroke:none"
         id="path53" /><path
         d="m 1140.285,840.891 c 0.719,0 1.004,0 1.004,0.683 0,0.36 -0.285,0.36 -0.93,0.36 h -2.906 c 0.684,3.691 1.184,6.238 1.469,7.386 0.219,0.86 0.969,1.684 1.902,1.684 0.754,0 1.504,-0.324 1.864,-0.645 -1.399,-0.144 -1.829,-1.183 -1.829,-1.792 0,-0.719 0.539,-1.149 1.219,-1.149 0.719,0 1.793,0.609 1.793,1.973 0,1.504 -1.504,2.332 -3.082,2.332 -1.543,0 -3.047,-1.149 -3.766,-2.547 -0.644,-1.254 -1.003,-2.547 -1.828,-7.242 h -2.402 c -0.684,0 -1.039,0 -1.039,-0.649 0,-0.394 0.215,-0.394 0.93,-0.394 h 2.296 c -0.644,-3.332 -2.117,-11.438 -2.941,-15.274 -0.609,-3.117 -1.148,-5.734 -2.941,-5.734 -0.106,0 -1.145,0 -1.793,0.68 1.832,0.144 1.832,1.722 1.832,1.757 0,0.715 -0.539,1.145 -1.219,1.145 -0.719,0 -1.793,-0.609 -1.793,-1.969 0,-1.543 1.574,-2.332 2.973,-2.332 3.66,0 5.164,6.563 5.558,8.356 0.645,2.757 2.403,12.297 2.582,13.371 z"
         style="fill:#000000;fill-opacity:1;fill-rule:nonzero;stroke:none"
         id="path55" /><path
         d="m 1157.016,817.766 c 0,0.105 0,0.179 -0.61,0.789 -3.586,3.621 -5.593,9.539 -5.593,16.851 0,6.957 1.687,12.946 5.843,17.176 0.36,0.32 0.36,0.395 0.36,0.5 0,0.215 -0.18,0.289 -0.321,0.289 -0.468,0 -3.406,-2.582 -5.164,-6.097 -1.828,-3.622 -2.652,-7.457 -2.652,-11.868 0,-3.191 0.5,-7.457 2.363,-11.293 2.117,-4.304 5.059,-6.632 5.453,-6.632 0.141,0 0.321,0.07 0.321,0.285 z"
         style="fill:#000000;fill-opacity:1;fill-rule:nonzero;stroke:none"
         id="path57" /><path
         d="m 1171.91,849.82 c 0,0.68 0,0.86 -0.504,0.86 -0.285,0 -0.394,0 -0.679,-0.43 l -10.793,-16.742 v -1.043 h 9.429 v -3.262 c 0,-1.328 -0.07,-1.683 -2.687,-1.683 h -0.719 v -1.043 c 0.824,0.074 3.656,0.074 4.66,0.074 1.004,0 3.875,0 4.699,-0.074 v 1.043 h -0.718 c -2.582,0 -2.688,0.355 -2.688,1.683 v 3.262 h 3.621 v 1.043 h -3.621 z m -2.367,-2.796 v -13.516 h -8.711 z"
         style="fill:#000000;fill-opacity:1;fill-rule:nonzero;stroke:none"
         id="path59" /><path
         d="m 1186.566,835.406 c 0,2.727 -0.359,7.172 -2.367,11.332 -2.117,4.301 -5.054,6.633 -5.449,6.633 -0.145,0 -0.324,-0.074 -0.324,-0.289 0,-0.105 0,-0.18 0.609,-0.789 3.586,-3.621 5.594,-9.535 5.594,-16.851 0,-6.958 -1.684,-12.942 -5.844,-17.176 -0.359,-0.321 -0.359,-0.395 -0.359,-0.5 0,-0.215 0.179,-0.285 0.324,-0.285 0.465,0 3.406,2.578 5.16,6.093 1.832,3.657 2.656,7.532 2.656,11.832 z"
         style="fill:#000000;fill-opacity:1;fill-rule:nonzero;stroke:none"
         id="path61" /><path
         d="m 772.586,643.524 c 0.715,0 1.004,0 1.004,0.679 0,0.36 -0.289,0.36 -0.934,0.36 h -2.902 c 0.68,3.691 1.184,6.238 1.469,7.386 0.215,0.86 0.968,1.684 1.902,1.684 0.75,0 1.504,-0.32 1.863,-0.645 -1.398,-0.144 -1.828,-1.183 -1.828,-1.793 0,-0.714 0.535,-1.148 1.219,-1.148 0.715,0 1.793,0.609 1.793,1.973 0,1.507 -1.508,2.332 -3.086,2.332 -1.539,0 -3.047,-1.149 -3.762,-2.547 -0.648,-1.254 -1.004,-2.547 -1.832,-7.242 h -2.402 c -0.68,0 -1.039,0 -1.039,-0.645 0,-0.394 0.215,-0.394 0.933,-0.394 h 2.293 c -0.644,-3.336 -2.113,-11.438 -2.937,-15.274 -0.61,-3.121 -1.149,-5.738 -2.942,-5.738 -0.109,0 -1.148,0 -1.793,0.68 1.829,0.144 1.829,1.722 1.829,1.757 0,0.719 -0.539,1.149 -1.219,1.149 -0.719,0 -1.793,-0.61 -1.793,-1.973 0,-1.543 1.578,-2.332 2.976,-2.332 3.657,0 5.165,6.563 5.559,8.356 0.645,2.761 2.402,12.296 2.582,13.375 z"
         style="fill:#000000;fill-opacity:1;fill-rule:nonzero;stroke:none"
         id="path63" /><path
         d="m 789.316,620.395 c 0,0.109 0,0.179 -0.609,0.789 -3.586,3.621 -5.594,9.539 -5.594,16.851 0,6.957 1.684,12.946 5.844,17.176 0.359,0.324 0.359,0.395 0.359,0.504 0,0.215 -0.179,0.285 -0.324,0.285 -0.465,0 -3.406,-2.582 -5.164,-6.094 -1.828,-3.621 -2.652,-7.461 -2.652,-11.871 0,-3.191 0.504,-7.457 2.367,-11.293 2.113,-4.3 5.055,-6.633 5.449,-6.633 0.145,0 0.324,0.071 0.324,0.286 z"
         style="fill:#000000;fill-opacity:1;fill-rule:nonzero;stroke:none"
         id="path65" /><path
         d="m 797.863,641.981 c -0.609,-0.036 -0.754,-0.071 -0.754,-0.395 0,-0.359 0.18,-0.359 0.825,-0.359 h 1.648 c 3.051,0 4.41,-2.508 4.41,-5.95 0,-4.699 -2.437,-5.953 -4.195,-5.953 -1.719,0 -4.66,0.825 -5.699,3.192 1.148,-0.18 2.187,0.465 2.187,1.758 0,1.039 -0.754,1.753 -1.758,1.753 -0.859,0 -1.793,-0.5 -1.793,-1.863 0,-3.191 3.192,-5.808 7.172,-5.808 4.266,0 7.422,3.261 7.422,6.882 0,3.301 -2.652,5.883 -6.094,6.493 3.118,0.894 5.125,3.511 5.125,6.308 0,2.832 -2.941,4.914 -6.418,4.914 -3.586,0 -6.238,-2.187 -6.238,-4.804 0,-1.434 1.11,-1.723 1.649,-1.723 0.753,0 1.613,0.539 1.613,1.613 0,1.149 -0.86,1.653 -1.649,1.653 -0.214,0 -0.285,0 -0.394,-0.04 1.363,2.442 4.734,2.442 4.914,2.442 1.18,0 3.512,-0.539 3.512,-4.055 0,-0.68 -0.106,-2.687 -1.149,-4.23 -1.074,-1.578 -2.293,-1.684 -3.261,-1.719 z"
         style="fill:#000000;fill-opacity:1;fill-rule:nonzero;stroke:none"
         id="path67" /><path
         d="m 818.863,638.035 c 0,2.727 -0.355,7.172 -2.367,11.332 -2.113,4.301 -5.055,6.633 -5.449,6.633 -0.141,0 -0.32,-0.07 -0.32,-0.285 0,-0.109 0,-0.18 0.609,-0.789 3.586,-3.621 5.594,-9.539 5.594,-16.852 0,-6.957 -1.688,-12.945 -5.848,-17.175 -0.355,-0.325 -0.355,-0.395 -0.355,-0.504 0,-0.215 0.179,-0.286 0.32,-0.286 0.469,0 3.406,2.583 5.164,6.094 1.828,3.66 2.652,7.531 2.652,11.832 z"
         style="fill:#000000;fill-opacity:1;fill-rule:nonzero;stroke:none"
         id="path69" /><path
         d="m 1331.84,643.637 c 0.719,0 1.004,0 1.004,0.683 0,0.356 -0.285,0.356 -0.934,0.356 h -2.902 c 0.68,3.695 1.183,6.242 1.469,7.387 0.214,0.863 0.968,1.687 1.902,1.687 0.754,0 1.504,-0.324 1.863,-0.644 -1.398,-0.145 -1.828,-1.184 -1.828,-1.793 0,-0.719 0.539,-1.149 1.219,-1.149 0.719,0 1.793,0.61 1.793,1.973 0,1.504 -1.508,2.328 -3.082,2.328 -1.543,0 -3.051,-1.145 -3.766,-2.543 -0.644,-1.258 -1.004,-2.547 -1.828,-7.246 h -2.402 c -0.684,0 -1.043,0 -1.043,-0.645 0,-0.394 0.218,-0.394 0.933,-0.394 h 2.297 c -0.648,-3.332 -2.117,-11.438 -2.941,-15.274 -0.61,-3.121 -1.149,-5.738 -2.942,-5.738 -0.105,0 -1.144,0 -1.793,0.684 1.829,0.14 1.829,1.718 1.829,1.758 0,0.714 -0.536,1.144 -1.219,1.144 -0.715,0 -1.793,-0.609 -1.793,-1.973 0,-1.539 1.578,-2.328 2.976,-2.328 3.657,0 5.164,6.563 5.559,8.352 0.644,2.762 2.402,12.301 2.582,13.375 z"
         style="fill:#000000;fill-opacity:1;fill-rule:nonzero;stroke:none"
         id="path71" /><path
         d="m 1348.57,620.512 c 0,0.105 0,0.18 -0.609,0.789 -3.586,3.621 -5.594,9.535 -5.594,16.851 0,6.957 1.684,12.946 5.844,17.176 0.359,0.321 0.359,0.395 0.359,0.5 0,0.215 -0.179,0.289 -0.324,0.289 -0.465,0 -3.406,-2.582 -5.16,-6.097 -1.832,-3.621 -2.656,-7.457 -2.656,-11.868 0,-3.191 0.504,-7.457 2.367,-11.296 2.117,-4.301 5.055,-6.633 5.449,-6.633 0.145,0 0.324,0.074 0.324,0.289 z"
         style="fill:#000000;fill-opacity:1;fill-rule:nonzero;stroke:none"
         id="path73" /><path
         d="m 1366.297,635.246 h -0.789 c -0.11,-0.609 -0.395,-2.582 -0.754,-3.152 -0.25,-0.324 -2.293,-0.324 -3.371,-0.324 h -6.633 c 0.969,0.824 3.156,3.121 4.09,3.98 5.449,5.02 7.457,6.883 7.457,10.434 0,4.125 -3.262,6.883 -7.422,6.883 -4.16,0 -6.598,-3.547 -6.598,-6.633 0,-1.828 1.578,-1.828 1.684,-1.828 0.754,0 1.687,0.539 1.687,1.687 0,1.004 -0.683,1.684 -1.687,1.684 -0.32,0 -0.395,0 -0.5,-0.035 0.68,2.437 2.617,4.085 4.945,4.085 3.051,0 4.914,-2.546 4.914,-5.843 0,-3.047 -1.757,-5.7 -3.8,-7.996 l -7.243,-8.102 v -0.863 h 13.086 z"
         style="fill:#000000;fill-opacity:1;fill-rule:nonzero;stroke:none"
         id="path75" /><path
         d="m 1378.121,638.152 c 0,2.723 -0.359,7.172 -2.367,11.329 -2.117,4.304 -5.055,6.636 -5.449,6.636 -0.145,0 -0.325,-0.074 -0.325,-0.289 0,-0.105 0,-0.179 0.61,-0.789 3.586,-3.621 5.594,-9.535 5.594,-16.851 0,-6.957 -1.688,-12.946 -5.844,-17.176 -0.36,-0.32 -0.36,-0.395 -0.36,-0.5 0,-0.215 0.18,-0.289 0.325,-0.289 0.465,0 3.406,2.582 5.16,6.097 1.828,3.657 2.656,7.528 2.656,11.832 z"
         style="fill:#000000;fill-opacity:1;fill-rule:nonzero;stroke:none"
         id="path77" /><path
         d="m 794.961,457.856 c 0.719,0 1.004,0 1.004,0.679 0,0.36 -0.285,0.36 -0.93,0.36 h -2.906 c 0.68,3.695 1.184,6.238 1.469,7.386 0.215,0.86 0.968,1.684 1.902,1.684 0.754,0 1.504,-0.32 1.863,-0.645 -1.398,-0.14 -1.828,-1.183 -1.828,-1.793 0,-0.714 0.539,-1.144 1.219,-1.144 0.719,0 1.793,0.609 1.793,1.969 0,1.507 -1.504,2.332 -3.082,2.332 -1.543,0 -3.051,-1.149 -3.766,-2.547 -0.644,-1.254 -1.004,-2.543 -1.828,-7.242 h -2.402 c -0.684,0 -1.039,0 -1.039,-0.645 0,-0.394 0.215,-0.394 0.929,-0.394 h 2.297 c -0.648,-3.336 -2.117,-11.438 -2.941,-15.274 -0.61,-3.121 -1.149,-5.738 -2.942,-5.738 -0.105,0 -1.144,0 -1.793,0.68 1.829,0.144 1.829,1.722 1.829,1.757 0,0.719 -0.536,1.149 -1.219,1.149 -0.715,0 -1.793,-0.61 -1.793,-1.973 0,-1.543 1.578,-2.332 2.976,-2.332 3.661,0 5.165,6.563 5.559,8.356 0.645,2.761 2.402,12.3 2.582,13.375 z"
         style="fill:#000000;fill-opacity:1;fill-rule:nonzero;stroke:none"
         id="path79" /><path
         d="m 811.691,434.727 c 0,0.109 0,0.179 -0.609,0.789 -3.586,3.625 -5.594,9.539 -5.594,16.855 0,6.953 1.684,12.942 5.844,17.172 0.359,0.324 0.359,0.395 0.359,0.504 0,0.215 -0.179,0.285 -0.324,0.285 -0.465,0 -3.406,-2.582 -5.16,-6.094 -1.828,-3.621 -2.656,-7.457 -2.656,-11.867 0,-3.191 0.504,-7.461 2.367,-11.297 2.117,-4.3 5.055,-6.632 5.449,-6.632 0.145,0 0.324,0.07 0.324,0.285 z"
         style="fill:#000000;fill-opacity:1;fill-rule:nonzero;stroke:none"
         id="path81" /><path
         d="m 823.969,466.426 c 0,0.824 0,0.859 -0.719,0.859 -0.859,-0.968 -2.652,-2.293 -6.348,-2.293 v -1.043 c 0.825,0 2.618,0 4.59,0.934 v -18.68 c 0,-1.293 -0.105,-1.722 -3.262,-1.722 h -1.113 v -1.039 c 0.969,0.07 4.449,0.07 5.633,0.07 1.18,0 4.625,0 5.59,-0.07 v 1.039 h -1.11 c -3.156,0 -3.261,0.429 -3.261,1.722 z"
         style="fill:#000000;fill-opacity:1;fill-rule:nonzero;stroke:none"
         id="path83" /><path
         d="m 841.242,452.371 c 0,2.723 -0.359,7.168 -2.367,11.328 -2.117,4.305 -5.055,6.633 -5.449,6.633 -0.145,0 -0.324,-0.07 -0.324,-0.285 0,-0.109 0,-0.18 0.609,-0.789 3.586,-3.621 5.594,-9.539 5.594,-16.852 0,-6.957 -1.684,-12.945 -5.844,-17.175 -0.359,-0.325 -0.359,-0.395 -0.359,-0.504 0,-0.215 0.179,-0.285 0.324,-0.285 0.465,0 3.406,2.582 5.16,6.097 1.828,3.656 2.656,7.528 2.656,11.832 z"
         style="fill:#000000;fill-opacity:1;fill-rule:nonzero;stroke:none"
         id="path85" /><path
         d="m 1438.566,457.723 c 0.715,0 1.004,0 1.004,0.683 0,0.356 -0.289,0.356 -0.933,0.356 h -2.903 c 0.68,3.695 1.184,6.242 1.469,7.387 0.215,0.863 0.969,1.687 1.902,1.687 0.75,0 1.504,-0.324 1.864,-0.648 -1.399,-0.141 -1.828,-1.18 -1.828,-1.793 0,-0.715 0.535,-1.145 1.218,-1.145 0.715,0 1.793,0.609 1.793,1.973 0,1.504 -1.507,2.328 -3.086,2.328 -1.539,0 -3.046,-1.149 -3.761,-2.543 -0.649,-1.258 -1.004,-2.547 -1.832,-7.246 h -2.403 c -0.679,0 -1.039,0 -1.039,-0.645 0,-0.394 0.215,-0.394 0.934,-0.394 h 2.293 c -0.645,-3.332 -2.113,-11.438 -2.938,-15.274 -0.609,-3.121 -1.148,-5.738 -2.941,-5.738 -0.109,0 -1.149,0 -1.793,0.684 1.828,0.14 1.828,1.718 1.828,1.754 0,0.718 -0.539,1.148 -1.219,1.148 -0.715,0 -1.793,-0.609 -1.793,-1.973 0,-1.539 1.578,-2.328 2.977,-2.328 3.656,0 5.164,6.559 5.559,8.352 0.644,2.761 2.402,12.301 2.582,13.375 z"
         style="fill:#000000;fill-opacity:1;fill-rule:nonzero;stroke:none"
         id="path87" /><path
         d="m 1455.297,434.598 c 0,0.105 0,0.179 -0.609,0.789 -3.586,3.621 -5.594,9.535 -5.594,16.851 0,6.954 1.683,12.942 5.844,17.176 0.359,0.32 0.359,0.391 0.359,0.5 0,0.215 -0.18,0.285 -0.324,0.285 -0.465,0 -3.407,-2.578 -5.164,-6.093 -1.829,-3.622 -2.653,-7.457 -2.653,-11.868 0,-3.191 0.504,-7.457 2.367,-11.296 2.114,-4.301 5.055,-6.633 5.45,-6.633 0.144,0 0.324,0.074 0.324,0.289 z"
         style="fill:#000000;fill-opacity:1;fill-rule:nonzero;stroke:none"
         id="path89" /><path
         d="m 1473.309,454.781 c 0,2.977 -0.18,5.883 -1.469,8.606 -1.473,2.976 -4.055,3.765 -5.809,3.765 -2.082,0 -4.625,-1.039 -5.953,-4.015 -1.004,-2.258 -1.363,-4.481 -1.363,-8.356 0,-3.476 0.25,-6.093 1.543,-8.64 1.398,-2.723 3.871,-3.586 5.734,-3.586 3.121,0 4.914,1.867 5.953,3.945 1.293,2.692 1.364,6.203 1.364,8.281 z m -7.317,-11.507 c -1.144,0 -3.476,0.644 -4.156,4.554 -0.395,2.149 -0.395,4.875 -0.395,7.387 0,2.937 0,5.594 0.575,7.707 0.609,2.402 2.437,3.516 3.976,3.516 1.363,0 3.446,-0.825 4.125,-3.911 0.465,-2.043 0.465,-4.875 0.465,-7.312 0,-2.402 0,-5.129 -0.394,-7.316 -0.68,-3.946 -2.938,-4.625 -4.196,-4.625 z"
         style="fill:#000000;fill-opacity:1;fill-rule:nonzero;stroke:none"
         id="path91" /><path
         d="m 1484.844,452.238 c 0,2.723 -0.356,7.172 -2.364,11.329 -2.117,4.304 -5.058,6.632 -5.453,6.632 -0.14,0 -0.32,-0.07 -0.32,-0.285 0,-0.109 0,-0.18 0.609,-0.789 3.586,-3.621 5.594,-9.539 5.594,-16.851 0,-6.957 -1.687,-12.946 -5.847,-17.176 -0.356,-0.321 -0.356,-0.395 -0.356,-0.5 0,-0.215 0.18,-0.289 0.32,-0.289 0.469,0 3.407,2.582 5.164,6.097 1.829,3.657 2.653,7.528 2.653,11.832 z"
         style="fill:#000000;fill-opacity:1;fill-rule:nonzero;stroke:none"
         id="path93" /><g
         id="g95"
         transform="matrix(1,0,0,-1,0,1082.0548)"><path
           d="m 648.805,247.668 c 0,28.656 -23.235,51.891 -51.895,51.891 -28.66,0 -51.89,-23.235 -51.89,-51.891 0,-28.66 23.23,-51.895 51.89,-51.895 28.66,0 51.895,23.235 51.895,51.895 z"
           style="fill:none;stroke:#000000;stroke-width:2.05483;stroke-linecap:round;stroke-linejoin:miter;stroke-miterlimit:4;stroke-dasharray:none;stroke-opacity:1"
           id="path97" /></g><g
         id="g99"
         transform="matrix(1,0,0,-1,0,1082.0548)"><path
           d="M 830.945,105.18 641.758,216.215"
           style="fill:none;stroke:#000000;stroke-width:0.807749;stroke-linecap:butt;stroke-linejoin:miter;stroke-miterlimit:4;stroke-dasharray:none;stroke-opacity:1"
           id="path101" /></g><g
         id="g103"
         transform="matrix(1,0.586924,0.586924,-1,0,1082.0548)"><path
           d="m 389.909,440.972 2.785,-2.787 -9.753,2.787 9.754,2.788 z"
           style="fill:#000000;fill-opacity:1;fill-rule:evenodd;stroke:#000000;stroke-width:0.696625;stroke-linecap:butt;stroke-linejoin:miter;stroke-miterlimit:4;stroke-dasharray:none;stroke-opacity:1"
           id="path105" /></g><g
         id="g107"
         transform="rotate(180,0,541.0274)"><path
           d="m -1105.09,247.781 c 0,28.66 -23.234,51.891 -51.894,51.891 -28.657,0 -51.891,-23.231 -51.891,-51.891 0,-28.66 23.234,-51.894 51.891,-51.894 28.66,0 51.894,23.234 51.894,51.894 z"
           style="fill:none;stroke:#000000;stroke-width:2.05483;stroke-linecap:round;stroke-linejoin:miter;stroke-miterlimit:4;stroke-dasharray:none;stroke-opacity:1"
           id="path109" /></g><g
         id="g111"
         transform="matrix(1,0,0,-1,0,1082.0548)"><path
           d="m 922.949,105.293 189.184,111.035"
           style="fill:none;stroke:#000000;stroke-width:0.807749;stroke-linecap:butt;stroke-linejoin:miter;stroke-miterlimit:4;stroke-dasharray:none;stroke-opacity:1"
           id="path113" /></g><g
         id="g115"
         transform="matrix(-1,0.586925,0.586925,1,0,1082.0548)"><path
           d="m -914.657,324.592 2.788,-2.784 -9.752,2.786 9.752,2.784 z"
           style="fill:#000000;fill-opacity:1;fill-rule:evenodd;stroke:#000000;stroke-width:0.696625;stroke-linecap:butt;stroke-linejoin:miter;stroke-miterlimit:4;stroke-dasharray:none;stroke-opacity:1"
           id="path117" /></g><g
         id="g119"
         transform="matrix(1,0,0,-1,0,1082.0548)"><path
           d="m 456.031,442.473 c 0,28.66 -23.234,51.894 -51.894,51.894 -28.66,0 -51.891,-23.234 -51.891,-51.894 0,-28.66 23.231,-51.891 51.891,-51.891 28.66,0 51.894,23.231 51.894,51.891 z"
           style="fill:none;stroke:#000000;stroke-width:2.05483;stroke-linecap:round;stroke-linejoin:miter;stroke-miterlimit:4;stroke-dasharray:none;stroke-opacity:1"
           id="path121" /></g><g
         id="g123"
         transform="matrix(1,0,0,-1,0,1082.0548)"><path
           d="M 555.242,276.762 435.016,399.133"
           style="fill:none;stroke:#000000;stroke-width:0.8;stroke-linecap:butt;stroke-linejoin:miter;stroke-miterlimit:4;stroke-dasharray:none;stroke-opacity:1"
           id="path125" /></g><g
         id="g127"
         transform="matrix(0.982473,1,1,-0.982473,0,1082.0548)"><path
           d="m 20.083,420.89 2.284,-2.283 -7.988,2.282 7.99,2.283 z"
           style="fill:#000000;fill-opacity:1;fill-rule:evenodd;stroke:#000000;stroke-width:0.570664;stroke-linecap:butt;stroke-linejoin:miter;stroke-miterlimit:4;stroke-dasharray:none;stroke-opacity:1"
           id="path129" /></g><g
         id="g131"
         transform="rotate(180,0,541.0274)"><path
           d="m -737.047,442.898 c 0,28.661 -23.234,51.891 -51.894,51.891 -28.661,0 -51.891,-23.23 -51.891,-51.891 0,-28.66 23.23,-51.89 51.891,-51.89 28.66,0 51.894,23.23 51.894,51.89 z"
           style="fill:none;stroke:#000000;stroke-width:2.05483;stroke-linecap:round;stroke-linejoin:miter;stroke-miterlimit:4;stroke-dasharray:none;stroke-opacity:1"
           id="path133" /></g><g
         id="g135"
         transform="matrix(1,0,0,-1,0,1082.0548)"><path
           d="M 637.836,277.188 758.063,399.559"
           style="fill:none;stroke:#000000;stroke-width:0.8;stroke-linecap:butt;stroke-linejoin:miter;stroke-miterlimit:4;stroke-dasharray:none;stroke-opacity:1"
           id="path137" /></g><g
         id="g139"
         transform="matrix(-0.982473,1,1,0.982473,0,1082.0548)"><path
           d="m -576.577,185.985 2.283,-2.284 -7.989,2.283 7.988,2.283 z"
           style="fill:#000000;fill-opacity:1;fill-rule:evenodd;stroke:#000000;stroke-width:0.570664;stroke-linecap:butt;stroke-linejoin:miter;stroke-miterlimit:4;stroke-dasharray:none;stroke-opacity:1"
           id="path141" /></g><g
         id="g143"
         transform="matrix(1,0,0,-1,0,1082.0548)"><path
           d="m 1015.359,442.688 c 0,28.656 -23.234,51.89 -51.894,51.89 -28.656,0 -51.891,-23.234 -51.891,-51.89 0,-28.661 23.235,-51.895 51.891,-51.895 28.66,0 51.894,23.234 51.894,51.895 z"
           style="fill:none;stroke:#000000;stroke-width:2.05483;stroke-linecap:round;stroke-linejoin:miter;stroke-miterlimit:4;stroke-dasharray:none;stroke-opacity:1"
           id="path145" /></g><g
         id="g147"
         transform="matrix(1,0,0,-1,0,1082.0548)"><path
           d="M 1114.57,276.977 994.344,399.348"
           style="fill:none;stroke:#000000;stroke-width:0.8;stroke-linecap:butt;stroke-linejoin:miter;stroke-miterlimit:4;stroke-dasharray:none;stroke-opacity:1"
           id="path149" /></g><g
         id="g151"
         transform="matrix(0.982473,1,1,-0.982473,0,1082.0548)"><path
           d="m 299.598,705.606 2.281,-2.283 -7.989,2.282 7.99,2.283 z"
           style="fill:#000000;fill-opacity:1;fill-rule:evenodd;stroke:#000000;stroke-width:0.570664;stroke-linecap:butt;stroke-linejoin:miter;stroke-miterlimit:4;stroke-dasharray:none;stroke-opacity:1"
           id="path153" /></g><g
         id="g155"
         transform="rotate(180,0,541.0274)"><path
           d="m -1296.379,443.109 c 0,28.661 -23.23,51.895 -51.891,51.895 -28.66,0 -51.894,-23.234 -51.894,-51.895 0,-28.656 23.234,-51.89 51.894,-51.89 28.661,0 51.891,23.234 51.891,51.89 z"
           style="fill:none;stroke:#000000;stroke-width:2.05483;stroke-linecap:round;stroke-linejoin:miter;stroke-miterlimit:4;stroke-dasharray:none;stroke-opacity:1"
           id="path157" /></g><g
         id="g159"
         transform="matrix(1,0,0,-1,0,1082.0548)"><path
           d="m 1197.164,277.402 120.227,122.371"
           style="fill:none;stroke:#000000;stroke-width:0.8;stroke-linecap:butt;stroke-linejoin:miter;stroke-miterlimit:4;stroke-dasharray:none;stroke-opacity:1"
           id="path161" /></g><g
         id="g163"
         transform="matrix(-0.982473,1,1,0.982473,0,1082.0548)"><path
           d="m -856.307,470.486 2.283,-2.284 -7.989,2.284 7.99,2.284 z"
           style="fill:#000000;fill-opacity:1;fill-rule:evenodd;stroke:#000000;stroke-width:0.570664;stroke-linecap:butt;stroke-linejoin:miter;stroke-miterlimit:4;stroke-dasharray:none;stroke-opacity:1"
           id="path165" /></g><path
         d="m 386.211,645.344 c 0.715,0 1.004,0 1.004,0.68 0,0.359 -0.289,0.359 -0.934,0.359 h -2.902 c 0.68,3.691 1.184,6.238 1.469,7.387 0.215,0.859 0.968,1.683 1.898,1.683 0.754,0 1.508,-0.324 1.867,-0.644 -1.398,-0.145 -1.828,-1.184 -1.828,-1.793 0,-0.719 0.535,-1.149 1.219,-1.149 0.715,0 1.793,0.61 1.793,1.973 0,1.504 -1.508,2.332 -3.086,2.332 -1.539,0 -3.047,-1.148 -3.766,-2.547 -0.644,-1.254 -1.004,-2.547 -1.828,-7.242 h -2.402 c -0.68,0 -1.039,0 -1.039,-0.645 0,-0.394 0.215,-0.394 0.933,-0.394 h 2.293 c -0.644,-3.336 -2.113,-11.442 -2.937,-15.277 -0.61,-3.118 -1.149,-5.735 -2.942,-5.735 -0.109,0 -1.148,0 -1.793,0.68 1.829,0.144 1.829,1.722 1.829,1.758 0,0.714 -0.539,1.148 -1.219,1.148 -0.719,0 -1.793,-0.613 -1.793,-1.973 0,-1.543 1.578,-2.332 2.976,-2.332 3.657,0 5.165,6.563 5.559,8.356 0.645,2.762 2.402,12.297 2.582,13.375 z"
         style="fill:#000000;fill-opacity:1;fill-rule:nonzero;stroke:none"
         id="path167" /><path
         d="m 402.941,622.215 c 0,0.109 0,0.18 -0.609,0.789 -3.586,3.621 -5.594,9.539 -5.594,16.852 0,6.957 1.684,12.945 5.844,17.175 0.359,0.325 0.359,0.395 0.359,0.5 0,0.215 -0.179,0.289 -0.324,0.289 -0.465,0 -3.406,-2.582 -5.164,-6.097 -1.828,-3.621 -2.652,-7.457 -2.652,-11.867 0,-3.192 0.504,-7.457 2.367,-11.293 2.113,-4.305 5.055,-6.633 5.449,-6.633 0.145,0 0.324,0.07 0.324,0.285 z"
         style="fill:#000000;fill-opacity:1;fill-rule:nonzero;stroke:none"
         id="path169" /><path
         d="m 417.832,654.27 c 0,0.683 0,0.859 -0.5,0.859 -0.289,0 -0.394,0 -0.684,-0.43 l -10.789,-16.742 v -1.043 h 9.43 v -3.262 c 0,-1.324 -0.074,-1.683 -2.691,-1.683 h -0.715 v -1.039 c 0.824,0.07 3.656,0.07 4.66,0.07 1.004,0 3.871,0 4.695,-0.07 v 1.039 h -0.715 c -2.582,0 -2.691,0.359 -2.691,1.683 v 3.262 h 3.621 v 1.043 h -3.621 z m -2.363,-2.797 v -13.516 h -8.715 z"
         style="fill:#000000;fill-opacity:1;fill-rule:nonzero;stroke:none"
         id="path171" /><path
         d="m 432.488,639.856 c 0,2.726 -0.359,7.171 -2.367,11.332 -2.113,4.3 -5.055,6.632 -5.449,6.632 -0.141,0 -0.32,-0.074 -0.32,-0.289 0,-0.105 0,-0.175 0.609,-0.789 3.586,-3.621 5.594,-9.535 5.594,-16.851 0,-6.953 -1.688,-12.942 -5.848,-17.172 -0.355,-0.324 -0.355,-0.395 -0.355,-0.504 0,-0.215 0.179,-0.285 0.32,-0.285 0.469,0 3.406,2.582 5.164,6.094 1.828,3.656 2.652,7.531 2.652,11.832 z"
         style="fill:#000000;fill-opacity:1;fill-rule:nonzero;stroke:none"
         id="path173" /><path
         d="m 947.125,645.344 c 0.715,0 1.004,0 1.004,0.68 0,0.359 -0.289,0.359 -0.934,0.359 h -2.902 c 0.68,3.691 1.184,6.238 1.469,7.387 0.215,0.859 0.968,1.683 1.902,1.683 0.75,0 1.504,-0.324 1.863,-0.644 -1.398,-0.145 -1.828,-1.184 -1.828,-1.793 0,-0.719 0.535,-1.149 1.219,-1.149 0.715,0 1.793,0.61 1.793,1.973 0,1.504 -1.508,2.332 -3.086,2.332 -1.539,0 -3.047,-1.148 -3.762,-2.547 -0.648,-1.254 -1.004,-2.547 -1.832,-7.242 h -2.402 c -0.68,0 -1.039,0 -1.039,-0.645 0,-0.394 0.215,-0.394 0.933,-0.394 h 2.293 c -0.644,-3.336 -2.113,-11.442 -2.937,-15.277 -0.609,-3.118 -1.149,-5.735 -2.941,-5.735 -0.11,0 -1.149,0 -1.793,0.68 1.828,0.144 1.828,1.722 1.828,1.758 0,0.714 -0.539,1.148 -1.219,1.148 -0.719,0 -1.793,-0.613 -1.793,-1.973 0,-1.543 1.578,-2.332 2.977,-2.332 3.656,0 5.164,6.563 5.558,8.356 0.645,2.762 2.402,12.297 2.582,13.375 z"
         style="fill:#000000;fill-opacity:1;fill-rule:nonzero;stroke:none"
         id="path175" /><path
         d="m 963.855,622.215 c 0,0.109 0,0.18 -0.609,0.789 -3.586,3.621 -5.594,9.539 -5.594,16.852 0,6.957 1.684,12.945 5.844,17.175 0.359,0.325 0.359,0.395 0.359,0.5 0,0.215 -0.179,0.289 -0.324,0.289 -0.465,0 -3.406,-2.582 -5.164,-6.097 -1.828,-3.621 -2.652,-7.457 -2.652,-11.867 0,-3.192 0.504,-7.457 2.367,-11.293 2.113,-4.305 5.055,-6.633 5.449,-6.633 0.145,0 0.324,0.07 0.324,0.285 z"
         style="fill:#000000;fill-opacity:1;fill-rule:nonzero;stroke:none"
         id="path177" /><path
         d="m 972.402,643.801 c -0.609,-0.035 -0.754,-0.074 -0.754,-0.395 0,-0.359 0.18,-0.359 0.825,-0.359 h 1.648 c 3.051,0 4.41,-2.508 4.41,-5.953 0,-4.695 -2.437,-5.949 -4.195,-5.949 -1.719,0 -4.66,0.824 -5.699,3.191 1.148,-0.18 2.187,0.465 2.187,1.754 0,1.043 -0.754,1.758 -1.758,1.758 -0.859,0 -1.793,-0.5 -1.793,-1.864 0,-3.191 3.192,-5.808 7.172,-5.808 4.266,0 7.422,3.262 7.422,6.883 0,3.3 -2.652,5.883 -6.094,6.492 3.118,0.894 5.125,3.512 5.125,6.308 0,2.833 -2.941,4.915 -6.418,4.915 -3.585,0 -6.238,-2.188 -6.238,-4.805 0,-1.438 1.11,-1.723 1.649,-1.723 0.754,0 1.613,0.539 1.613,1.613 0,1.149 -0.859,1.649 -1.649,1.649 -0.214,0 -0.285,0 -0.394,-0.035 1.363,2.437 4.734,2.437 4.914,2.437 1.18,0 3.512,-0.535 3.512,-4.051 0,-0.679 -0.106,-2.687 -1.149,-4.23 -1.074,-1.578 -2.293,-1.684 -3.261,-1.723 z"
         style="fill:#000000;fill-opacity:1;fill-rule:nonzero;stroke:none"
         id="path179" /><path
         d="m 993.402,639.856 c 0,2.726 -0.355,7.171 -2.367,11.332 -2.113,4.3 -5.055,6.632 -5.449,6.632 -0.141,0 -0.32,-0.074 -0.32,-0.289 0,-0.105 0,-0.175 0.609,-0.789 3.586,-3.621 5.594,-9.535 5.594,-16.851 0,-6.953 -1.688,-12.942 -5.848,-17.172 -0.355,-0.324 -0.355,-0.395 -0.355,-0.504 0,-0.215 0.179,-0.285 0.32,-0.285 0.469,0 3.406,2.582 5.164,6.094 1.828,3.656 2.652,7.531 2.652,11.832 z"
         style="fill:#000000;fill-opacity:1;fill-rule:nonzero;stroke:none"
         id="path181" /><g
         id="g183"
         transform="matrix(1,0,0,-1,0,1082.0548)"><path
           d="m 348.902,627.781 c 0,28.66 -23.23,51.891 -51.89,51.891 -28.66,0 -51.895,-23.231 -51.895,-51.891 0,-28.66 23.235,-51.894 51.895,-51.894 28.66,0 51.89,23.234 51.89,51.894 z"
           style="fill:none;stroke:#000000;stroke-width:2.05483;stroke-linecap:round;stroke-linejoin:miter;stroke-miterlimit:4;stroke-dasharray:none;stroke-opacity:1"
           id="path185" /></g><g
         id="g187"
         transform="matrix(1,0,0,-1,0,1082.0548)"><path
           d="m 372.645,483.711 -53.336,93.742"
           style="fill:none;stroke:#000000;stroke-width:0.8;stroke-linecap:butt;stroke-linejoin:miter;stroke-miterlimit:4;stroke-dasharray:none;stroke-opacity:1"
           id="path189" /></g><g
         id="g191"
         transform="matrix(0.568965,1,1,-0.568965,0,1082.0548)"><path
           d="m -292.037,489.42 2.781,-2.781 -9.733,2.784 9.735,2.781 z"
           style="fill:#000000;fill-opacity:1;fill-rule:evenodd;stroke:#000000;stroke-width:0.695331;stroke-linecap:butt;stroke-linejoin:miter;stroke-miterlimit:4;stroke-dasharray:none;stroke-opacity:1"
           id="path193" /></g><g
         id="g195"
         transform="rotate(180,0,541.0274)"><path
           d="m -459.254,629.008 c 0,28.656 -23.23,51.89 -51.891,51.89 -28.66,0 -51.894,-23.234 -51.894,-51.89 0,-28.66 23.234,-51.895 51.894,-51.895 28.661,0 51.891,23.235 51.891,51.895 z"
           style="fill:none;stroke:#000000;stroke-width:2.05483;stroke-linecap:round;stroke-linejoin:miter;stroke-miterlimit:4;stroke-dasharray:none;stroke-opacity:1"
           id="path197" /></g><g
         id="g199"
         transform="matrix(1,0,0,-1,0,1082.0548)"><path
           d="m 435.512,484.938 53.336,93.742"
           style="fill:none;stroke:#000000;stroke-width:0.8;stroke-linecap:butt;stroke-linejoin:miter;stroke-miterlimit:4;stroke-dasharray:none;stroke-opacity:1"
           id="path201" /></g><g
         id="g203"
         transform="matrix(-0.568965,1,1,0.568965,0,1082.0548)"><path
           d="m -640.327,120.571 2.781,-2.781 -9.733,2.779 9.736,2.785 z"
           style="fill:#000000;fill-opacity:1;fill-rule:evenodd;stroke:#000000;stroke-width:0.695331;stroke-linecap:butt;stroke-linejoin:miter;stroke-miterlimit:4;stroke-dasharray:none;stroke-opacity:1"
           id="path205" /></g><g
         id="g207"
         transform="matrix(1,0,0,-1,0,1082.0548)"><path
           d="m 733.379,627.938 c 0,28.656 -23.234,51.89 -51.891,51.89 -28.66,0 -51.894,-23.234 -51.894,-51.89 0,-28.661 23.234,-51.895 51.894,-51.895 28.657,0 51.891,23.234 51.891,51.895 z"
           style="fill:none;stroke:#000000;stroke-width:2.05483;stroke-linecap:round;stroke-linejoin:miter;stroke-miterlimit:4;stroke-dasharray:none;stroke-opacity:1"
           id="path209" /></g><g
         id="g211"
         transform="matrix(1,0,0,-1,0,1082.0548)"><path
           d="m 757.117,483.867 -53.336,93.742"
           style="fill:none;stroke:#000000;stroke-width:0.8;stroke-linecap:butt;stroke-linejoin:miter;stroke-miterlimit:4;stroke-dasharray:none;stroke-opacity:1"
           id="path213" /></g><g
         id="g215"
         transform="matrix(0.568965,1,1,-0.568965,0,1082.0548)"><path
           d="m -126.898,779.939 2.781,-2.782 -9.735,2.781 9.735,2.782 z"
           style="fill:#000000;fill-opacity:1;fill-rule:evenodd;stroke:#000000;stroke-width:0.695331;stroke-linecap:butt;stroke-linejoin:miter;stroke-miterlimit:4;stroke-dasharray:none;stroke-opacity:1"
           id="path217" /></g><g
         id="g219"
         transform="rotate(180,0,541.0274)"><path
           d="m -755.73,629.16 c 0,28.66 -23.231,51.895 -51.891,51.895 -28.66,0 -51.891,-23.235 -51.891,-51.895 0,-28.656 23.231,-51.89 51.891,-51.89 28.66,0 51.891,23.234 51.891,51.89 z"
           style="fill:none;stroke:#000000;stroke-width:2.05483;stroke-linecap:round;stroke-linejoin:miter;stroke-miterlimit:4;stroke-dasharray:none;stroke-opacity:1"
           id="path221" /></g><g
         id="g223"
         transform="matrix(1,0,0,-1,0,1082.0548)"><path
           d="m 1292.063,627.473 c 0,28.66 -23.231,51.89 -51.891,51.89 -28.66,0 -51.895,-23.23 -51.895,-51.89 0,-28.66 23.235,-51.895 51.895,-51.895 28.66,0 51.891,23.235 51.891,51.895 z"
           style="fill:none;stroke:#000000;stroke-width:2.05483;stroke-linecap:round;stroke-linejoin:miter;stroke-miterlimit:4;stroke-dasharray:none;stroke-opacity:1"
           id="path225" /></g><g
         id="g227"
         transform="matrix(1,0,0,-1,0,1082.0548)"><path
           d="m 1315.805,483.402 -53.336,93.743"
           style="fill:none;stroke:#000000;stroke-width:0.8;stroke-linecap:butt;stroke-linejoin:miter;stroke-miterlimit:4;stroke-dasharray:none;stroke-opacity:1"
           id="path229" /></g><g
         id="g231"
         transform="matrix(0.568965,1,1,-0.568965,0,1082.0548)"><path
           d="m 113.588,1201.795 2.78,-2.782 -9.732,2.784 9.733,2.778 z"
           style="fill:#000000;fill-opacity:1;fill-rule:evenodd;stroke:#000000;stroke-width:0.695331;stroke-linecap:butt;stroke-linejoin:miter;stroke-miterlimit:4;stroke-dasharray:none;stroke-opacity:1"
           id="path233" /></g><g
         id="g235"
         transform="rotate(180,0,541.0274)"><path
           d="m -1402.414,628.699 c 0,28.656 -23.231,51.891 -51.891,51.891 -28.66,0 -51.894,-23.235 -51.894,-51.891 0,-28.66 23.234,-51.894 51.894,-51.894 28.66,0 51.891,23.234 51.891,51.894 z"
           style="fill:none;stroke:#000000;stroke-width:2.05483;stroke-linecap:round;stroke-linejoin:miter;stroke-miterlimit:4;stroke-dasharray:none;stroke-opacity:1"
           id="path237" /></g><g
         id="g239"
         transform="matrix(1,0,0,-1,0,1082.0548)"><path
           d="m 1378.672,484.629 53.336,93.742"
           style="fill:none;stroke:#000000;stroke-width:0.8;stroke-linecap:butt;stroke-linejoin:miter;stroke-miterlimit:4;stroke-dasharray:none;stroke-opacity:1"
           id="path241" /></g><g
         id="g243"
         transform="matrix(-0.568965,1,1,0.568965,0,1082.0548)"><path
           d="m -1045.485,833.21 2.781,-2.78 -9.733,2.778 9.735,2.785 z"
           style="fill:#000000;fill-opacity:1;fill-rule:evenodd;stroke:#000000;stroke-width:0.695331;stroke-linecap:butt;stroke-linejoin:miter;stroke-miterlimit:4;stroke-dasharray:none;stroke-opacity:1"
           id="path245" /></g><g
         id="g247"
         transform="matrix(1,0,0,-1,0,1082.0548)"><path
           d="m 796.098,493.41 8.89,81.617"
           style="fill:none;stroke:#000000;stroke-width:0.8;stroke-linecap:butt;stroke-linejoin:miter;stroke-miterlimit:4;stroke-dasharray:none;stroke-opacity:1"
           id="path249" /></g><g
         id="g251"
         transform="matrix(-0.108911,1,1,0.108911,0,1082.0548)"><path
           d="m -646.978,733.658 3.179,-3.181 -11.132,3.182 11.134,3.181 z"
           style="fill:#000000;fill-opacity:1;fill-rule:evenodd;stroke:#000000;stroke-width:0.795297;stroke-linecap:butt;stroke-linejoin:miter;stroke-miterlimit:4;stroke-dasharray:none;stroke-opacity:1"
           id="path253" /></g><g
         id="g255"
         transform="rotate(180,0,541.0274)"><path
           d="m -1018.953,627.352 c 0,28.66 -23.235,51.894 -51.891,51.894 -28.66,0 -51.894,-23.234 -51.894,-51.894 0,-28.657 23.234,-51.891 51.894,-51.891 28.656,0 51.891,23.234 51.891,51.891 z"
           style="fill:none;stroke:#000000;stroke-width:2.05483;stroke-linecap:round;stroke-linejoin:miter;stroke-miterlimit:4;stroke-dasharray:none;stroke-opacity:1"
           id="path257" /></g><g
         id="g259"
         transform="matrix(1,0,0,-1,0,1082.0548)"><path
           d="m 995.215,483.285 53.336,93.742"
           style="fill:none;stroke:#000000;stroke-width:0.8;stroke-linecap:butt;stroke-linejoin:miter;stroke-miterlimit:4;stroke-dasharray:none;stroke-opacity:1"
           id="path261" /></g><g
         id="g263"
         transform="matrix(-0.568965,1,1,0.568965,0,1082.0548)"><path
           d="m -879.65,544.103 2.781,-2.781 -9.735,2.782 9.738,2.782 z"
           style="fill:#000000;fill-opacity:1;fill-rule:evenodd;stroke:#000000;stroke-width:0.695331;stroke-linecap:butt;stroke-linejoin:miter;stroke-miterlimit:4;stroke-dasharray:none;stroke-opacity:1"
           id="path265" /></g><g
         id="g267"
         transform="matrix(1,0,0,-1,0,1082.0548)"><path
           d="m 996.602,628.578 c 0,28.66 -23.231,51.895 -51.891,51.895 -28.66,0 -51.891,-23.235 -51.891,-51.895 0,-28.66 23.231,-51.89 51.891,-51.89 28.66,0 51.891,23.23 51.891,51.89 z"
           style="fill:none;stroke:#000000;stroke-width:2.05483;stroke-linecap:round;stroke-linejoin:miter;stroke-miterlimit:4;stroke-dasharray:none;stroke-opacity:1"
           id="path269" /></g><g
         id="g271"
         transform="matrix(1,0,0,-1,0,1082.0548)"><path
           d="m 956.234,492.824 -8.89,81.621"
           style="fill:none;stroke:#000000;stroke-width:0.8;stroke-linecap:butt;stroke-linejoin:miter;stroke-miterlimit:4;stroke-dasharray:none;stroke-opacity:1"
           id="path273" /></g><g
         id="g275"
         transform="matrix(0.10891,1,1,-0.10891,0,1082.0548)"><path
           d="m -457.792,998.069 3.18,-3.182 -11.134,3.181 11.132,3.182 z"
           style="fill:#000000;fill-opacity:1;fill-rule:evenodd;stroke:#000000;stroke-width:0.795297;stroke-linecap:butt;stroke-linejoin:miter;stroke-miterlimit:4;stroke-dasharray:none;stroke-opacity:1"
           id="path277" /></g><path
         d="m 279.469,459.512 c 0.715,0 1.004,0 1.004,0.683 0,0.36 -0.289,0.36 -0.934,0.36 h -2.906 c 0.683,3.691 1.183,6.238 1.472,7.387 0.215,0.859 0.969,1.683 1.899,1.683 0.754,0 1.508,-0.324 1.867,-0.644 -1.398,-0.145 -1.832,-1.184 -1.832,-1.793 0,-0.719 0.539,-1.149 1.223,-1.149 0.715,0 1.793,0.61 1.793,1.973 0,1.504 -1.508,2.332 -3.086,2.332 -1.543,0 -3.047,-1.149 -3.766,-2.547 -0.644,-1.254 -1.004,-2.547 -1.828,-7.242 h -2.402 c -0.68,0 -1.039,0 -1.039,-0.649 0,-0.394 0.214,-0.394 0.933,-0.394 h 2.293 c -0.644,-3.332 -2.113,-11.438 -2.941,-15.274 -0.61,-3.117 -1.145,-5.734 -2.938,-5.734 -0.109,0 -1.148,0 -1.793,0.68 1.828,0.144 1.828,1.722 1.828,1.758 0,0.714 -0.539,1.144 -1.218,1.144 -0.719,0 -1.793,-0.609 -1.793,-1.969 0,-1.543 1.578,-2.332 2.976,-2.332 3.657,0 5.164,6.563 5.559,8.356 0.644,2.758 2.402,12.297 2.578,13.371 z"
         style="fill:#000000;fill-opacity:1;fill-rule:nonzero;stroke:none"
         id="path279" /><path
         d="m 296.199,436.387 c 0,0.105 0,0.18 -0.613,0.789 -3.582,3.621 -5.59,9.539 -5.59,16.851 0,6.957 1.684,12.946 5.844,17.176 0.359,0.321 0.359,0.395 0.359,0.5 0,0.215 -0.179,0.289 -0.324,0.289 -0.465,0 -3.406,-2.582 -5.164,-6.097 -1.828,-3.621 -2.652,-7.457 -2.652,-11.868 0,-3.191 0.5,-7.457 2.367,-11.293 2.113,-4.304 5.054,-6.632 5.449,-6.632 0.145,0 0.324,0.07 0.324,0.285 z"
         style="fill:#000000;fill-opacity:1;fill-rule:nonzero;stroke:none"
         id="path281" /><path
         d="m 304.742,457.973 c -0.609,-0.035 -0.75,-0.074 -0.75,-0.395 0,-0.359 0.18,-0.359 0.824,-0.359 h 1.649 c 3.047,0 4.41,-2.512 4.41,-5.953 0,-4.696 -2.437,-5.949 -4.195,-5.949 -1.719,0 -4.66,0.824 -5.7,3.187 1.145,-0.176 2.188,0.469 2.188,1.758 0,1.039 -0.754,1.758 -1.758,1.758 -0.859,0 -1.793,-0.5 -1.793,-1.864 0,-3.191 3.192,-5.808 7.172,-5.808 4.266,0 7.422,3.261 7.422,6.883 0,3.3 -2.652,5.878 -6.098,6.488 3.121,0.898 5.129,3.515 5.129,6.312 0,2.832 -2.941,4.914 -6.418,4.914 -3.586,0 -6.238,-2.187 -6.238,-4.804 0,-1.438 1.109,-1.723 1.648,-1.723 0.754,0 1.614,0.539 1.614,1.613 0,1.149 -0.86,1.649 -1.649,1.649 -0.215,0 -0.289,0 -0.394,-0.035 1.363,2.437 4.73,2.437 4.91,2.437 1.183,0 3.515,-0.535 3.515,-4.051 0,-0.679 -0.109,-2.687 -1.148,-4.23 -1.074,-1.578 -2.293,-1.688 -3.262,-1.723 z"
         style="fill:#000000;fill-opacity:1;fill-rule:nonzero;stroke:none"
         id="path283" /><path
         d="m 325.746,454.027 c 0,2.727 -0.359,7.172 -2.367,11.332 -2.113,4.301 -5.055,6.633 -5.449,6.633 -0.145,0 -0.325,-0.074 -0.325,-0.289 0,-0.105 0,-0.179 0.61,-0.789 3.586,-3.621 5.594,-9.535 5.594,-16.851 0,-6.957 -1.684,-12.942 -5.844,-17.176 -0.36,-0.32 -0.36,-0.395 -0.36,-0.5 0,-0.215 0.18,-0.285 0.325,-0.285 0.465,0 3.406,2.578 5.164,6.093 1.828,3.657 2.652,7.532 2.652,11.832 z"
         style="fill:#000000;fill-opacity:1;fill-rule:nonzero;stroke:none"
         id="path285" /><path
         d="m 494.555,457.227 c 0.715,0 1.004,0 1.004,0.683 0,0.356 -0.289,0.356 -0.934,0.356 h -2.906 c 0.683,3.695 1.183,6.242 1.472,7.386 0.215,0.864 0.969,1.688 1.899,1.688 0.754,0 1.508,-0.324 1.867,-0.645 -1.398,-0.144 -1.832,-1.183 -1.832,-1.793 0,-0.718 0.539,-1.148 1.223,-1.148 0.715,0 1.789,0.609 1.789,1.973 0,1.504 -1.504,2.328 -3.082,2.328 -1.543,0 -3.047,-1.145 -3.766,-2.543 -0.644,-1.258 -1.004,-2.547 -1.828,-7.246 h -2.402 c -0.68,0 -1.039,0 -1.039,-0.645 0,-0.394 0.214,-0.394 0.933,-0.394 h 2.293 c -0.644,-3.332 -2.117,-11.438 -2.941,-15.274 -0.61,-3.121 -1.145,-5.738 -2.938,-5.738 -0.109,0 -1.148,0 -1.793,0.684 1.828,0.14 1.828,1.718 1.828,1.757 0,0.715 -0.539,1.145 -1.218,1.145 -0.719,0 -1.793,-0.609 -1.793,-1.973 0,-1.539 1.578,-2.328 2.976,-2.328 3.656,0 5.16,6.563 5.555,8.356 0.648,2.757 2.402,12.296 2.582,13.371 z"
         style="fill:#000000;fill-opacity:1;fill-rule:nonzero;stroke:none"
         id="path287" /><path
         d="m 511.281,434.102 c 0,0.105 0,0.179 -0.609,0.789 -3.586,3.621 -5.594,9.535 -5.594,16.851 0,6.957 1.688,12.946 5.848,17.176 0.355,0.32 0.355,0.395 0.355,0.5 0,0.215 -0.176,0.289 -0.32,0.289 -0.465,0 -3.406,-2.582 -5.164,-6.098 -1.828,-3.621 -2.652,-7.457 -2.652,-11.867 0,-3.191 0.5,-7.457 2.367,-11.297 2.113,-4.3 5.054,-6.632 5.449,-6.632 0.144,0 0.32,0.074 0.32,0.289 z"
         style="fill:#000000;fill-opacity:1;fill-rule:nonzero;stroke:none"
         id="path289" /><path
         d="m 529.008,448.836 h -0.789 c -0.106,-0.609 -0.395,-2.578 -0.75,-3.152 -0.254,-0.325 -2.297,-0.325 -3.371,-0.325 h -6.633 c 0.965,0.825 3.152,3.122 4.086,3.981 5.449,5.019 7.457,6.883 7.457,10.434 0,4.125 -3.262,6.882 -7.422,6.882 -4.16,0 -6.598,-3.547 -6.598,-6.632 0,-1.829 1.578,-1.829 1.688,-1.829 0.75,0 1.683,0.539 1.683,1.688 0,1.004 -0.679,1.684 -1.683,1.684 -0.324,0 -0.395,0 -0.504,-0.036 0.683,2.438 2.617,4.086 4.949,4.086 3.047,0 4.91,-2.547 4.91,-5.843 0,-3.047 -1.754,-5.7 -3.801,-7.997 l -7.242,-8.101 v -0.863 h 13.09 z"
         style="fill:#000000;fill-opacity:1;fill-rule:nonzero;stroke:none"
         id="path291" /><path
         d="m 540.832,451.742 c 0,2.727 -0.359,7.172 -2.367,11.328 -2.113,4.305 -5.055,6.637 -5.449,6.637 -0.145,0 -0.325,-0.074 -0.325,-0.289 0,-0.105 0,-0.18 0.61,-0.789 3.586,-3.621 5.594,-9.535 5.594,-16.852 0,-6.957 -1.684,-12.945 -5.844,-17.175 -0.36,-0.321 -0.36,-0.395 -0.36,-0.5 0,-0.215 0.18,-0.289 0.325,-0.289 0.464,0 3.406,2.582 5.164,6.097 1.828,3.657 2.652,7.528 2.652,11.832 z"
         style="fill:#000000;fill-opacity:1;fill-rule:nonzero;stroke:none"
         id="path293" /><path
         d="m 665.98,458.598 c 0.719,0 1.004,0 1.004,0.683 0,0.36 -0.285,0.36 -0.929,0.36 h -2.907 c 0.684,3.691 1.184,6.238 1.469,7.383 0.219,0.863 0.969,1.687 1.903,1.687 0.753,0 1.503,-0.324 1.863,-0.644 -1.399,-0.145 -1.828,-1.184 -1.828,-1.793 0,-0.719 0.539,-1.149 1.218,-1.149 0.719,0 1.793,0.609 1.793,1.973 0,1.504 -1.503,2.328 -3.082,2.328 -1.543,0 -3.046,-1.145 -3.765,-2.543 -0.645,-1.258 -1.004,-2.547 -1.828,-7.242 h -2.403 c -0.683,0 -1.039,0 -1.039,-0.649 0,-0.394 0.215,-0.394 0.93,-0.394 h 2.297 c -0.645,-3.332 -2.117,-11.438 -2.942,-15.274 -0.609,-3.117 -1.148,-5.738 -2.941,-5.738 -0.105,0 -1.145,0 -1.793,0.684 1.832,0.144 1.832,1.718 1.832,1.757 0,0.715 -0.539,1.145 -1.223,1.145 -0.714,0 -1.789,-0.609 -1.789,-1.969 0,-1.543 1.575,-2.332 2.973,-2.332 3.66,0 5.164,6.563 5.559,8.356 0.644,2.757 2.402,12.297 2.582,13.371 z"
         style="fill:#000000;fill-opacity:1;fill-rule:nonzero;stroke:none"
         id="path295" /><path
         d="m 682.711,435.473 c 0,0.105 0,0.179 -0.609,0.789 -3.586,3.621 -5.594,9.535 -5.594,16.851 0,6.957 1.687,12.946 5.844,17.176 0.359,0.32 0.359,0.395 0.359,0.5 0,0.215 -0.18,0.289 -0.32,0.289 -0.469,0 -3.407,-2.582 -5.164,-6.097 -1.829,-3.622 -2.653,-7.457 -2.653,-11.868 0,-3.191 0.5,-7.457 2.364,-11.293 2.117,-4.304 5.058,-6.636 5.453,-6.636 0.14,0 0.32,0.074 0.32,0.289 z"
         style="fill:#000000;fill-opacity:1;fill-rule:nonzero;stroke:none"
         id="path297" /><path
         d="m 700.438,450.207 h -0.79 c -0.109,-0.609 -0.394,-2.578 -0.753,-3.152 -0.25,-0.324 -2.293,-0.324 -3.372,-0.324 h -6.632 c 0.968,0.824 3.156,3.121 4.089,3.98 5.45,5.02 7.458,6.883 7.458,10.434 0,4.125 -3.262,6.882 -7.422,6.882 -4.161,0 -6.598,-3.546 -6.598,-6.632 0,-1.828 1.578,-1.828 1.684,-1.828 0.753,0 1.687,0.539 1.687,1.687 0,1.004 -0.684,1.684 -1.687,1.684 -0.321,0 -0.395,0 -0.5,-0.036 0.679,2.438 2.617,4.086 4.949,4.086 3.047,0 4.91,-2.543 4.91,-5.843 0,-3.047 -1.758,-5.7 -3.801,-7.996 l -7.242,-8.102 v -0.863 h 13.086 z"
         style="fill:#000000;fill-opacity:1;fill-rule:nonzero;stroke:none"
         id="path299" /><path
         d="m 712.262,453.113 c 0,2.727 -0.36,7.172 -2.367,11.332 -2.118,4.301 -5.055,6.633 -5.45,6.633 -0.144,0 -0.324,-0.074 -0.324,-0.289 0,-0.105 0,-0.18 0.609,-0.789 3.586,-3.621 5.594,-9.535 5.594,-16.851 0,-6.957 -1.683,-12.942 -5.844,-17.176 -0.359,-0.321 -0.359,-0.395 -0.359,-0.5 0,-0.215 0.18,-0.289 0.324,-0.289 0.465,0 3.407,2.582 5.16,6.097 1.833,3.657 2.657,7.528 2.657,11.832 z"
         style="fill:#000000;fill-opacity:1;fill-rule:nonzero;stroke:none"
         id="path301" /><path
         d="m 1055.957,458.227 c 0.719,0 1.004,0 1.004,0.683 0,0.356 -0.285,0.356 -0.934,0.356 h -2.902 c 0.68,3.695 1.184,6.242 1.469,7.386 0.215,0.864 0.969,1.688 1.902,1.688 0.754,0 1.504,-0.324 1.863,-0.648 -1.398,-0.141 -1.828,-1.18 -1.828,-1.793 0,-0.715 0.539,-1.145 1.219,-1.145 0.719,0 1.793,0.609 1.793,1.973 0,1.504 -1.508,2.328 -3.082,2.328 -1.543,0 -3.051,-1.145 -3.766,-2.543 -0.644,-1.258 -1.004,-2.547 -1.828,-7.246 h -2.402 c -0.684,0 -1.043,0 -1.043,-0.645 0,-0.394 0.219,-0.394 0.933,-0.394 h 2.297 c -0.648,-3.332 -2.117,-11.438 -2.941,-15.274 -0.609,-3.121 -1.148,-5.738 -2.941,-5.738 -0.106,0 -1.149,0 -1.793,0.684 1.828,0.14 1.828,1.718 1.828,1.753 0,0.719 -0.535,1.149 -1.219,1.149 -0.715,0 -1.793,-0.609 -1.793,-1.973 0,-1.539 1.578,-2.328 2.977,-2.328 3.656,0 5.164,6.559 5.558,8.352 0.645,2.761 2.402,12.3 2.582,13.375 z"
         style="fill:#000000;fill-opacity:1;fill-rule:nonzero;stroke:none"
         id="path303" /><path
         d="m 1072.688,435.102 c 0,0.105 0,0.179 -0.61,0.789 -3.586,3.621 -5.594,9.535 -5.594,16.851 0,6.957 1.684,12.942 5.844,17.176 0.36,0.32 0.36,0.395 0.36,0.5 0,0.215 -0.18,0.285 -0.325,0.285 -0.465,0 -3.406,-2.578 -5.16,-6.094 -1.832,-3.621 -2.656,-7.457 -2.656,-11.867 0,-3.191 0.504,-7.457 2.367,-11.297 2.117,-4.3 5.055,-6.632 5.449,-6.632 0.145,0 0.325,0.074 0.325,0.289 z"
         style="fill:#000000;fill-opacity:1;fill-rule:nonzero;stroke:none"
         id="path305" /><path
         d="m 1084.965,466.797 c 0,0.824 0,0.859 -0.719,0.859 -0.859,-0.968 -2.652,-2.293 -6.348,-2.293 v -1.039 c 0.825,0 2.618,0 4.59,0.93 v -18.68 c 0,-1.289 -0.105,-1.722 -3.261,-1.722 h -1.114 v -1.039 c 0.969,0.074 4.45,0.074 5.629,0.074 1.184,0 4.629,0 5.594,-0.074 v 1.039 h -1.109 c -3.157,0 -3.262,0.433 -3.262,1.722 z"
         style="fill:#000000;fill-opacity:1;fill-rule:nonzero;stroke:none"
         id="path307" /><path
         d="m 1102.238,452.742 c 0,2.723 -0.359,7.172 -2.367,11.328 -2.117,4.305 -5.058,6.633 -5.449,6.633 -0.145,0 -0.324,-0.07 -0.324,-0.285 0,-0.105 0,-0.18 0.609,-0.789 3.586,-3.621 5.594,-9.539 5.594,-16.852 0,-6.957 -1.688,-12.945 -5.844,-17.175 -0.359,-0.321 -0.359,-0.395 -0.359,-0.5 0,-0.215 0.179,-0.289 0.324,-0.289 0.465,0 3.406,2.582 5.16,6.097 1.828,3.657 2.656,7.528 2.656,11.832 z"
         style="fill:#000000;fill-opacity:1;fill-rule:nonzero;stroke:none"
         id="path309" /><path
         d="m 926.977,458.973 c 0.718,0 1.003,0 1.003,0.679 0,0.36 -0.285,0.36 -0.929,0.36 h -2.906 c 0.679,3.691 1.183,6.238 1.468,7.387 0.215,0.859 0.969,1.683 1.903,1.683 0.754,0 1.504,-0.324 1.863,-0.644 -1.399,-0.145 -1.828,-1.184 -1.828,-1.793 0,-0.719 0.539,-1.149 1.219,-1.149 0.718,0 1.793,0.61 1.793,1.973 0,1.508 -1.504,2.332 -3.083,2.332 -1.542,0 -3.05,-1.149 -3.765,-2.547 -0.645,-1.254 -1.004,-2.547 -1.828,-7.242 h -2.403 c -0.683,0 -1.039,0 -1.039,-0.645 0,-0.394 0.215,-0.394 0.93,-0.394 h 2.297 c -0.649,-3.336 -2.117,-11.442 -2.942,-15.278 -0.609,-3.117 -1.148,-5.734 -2.941,-5.734 -0.105,0 -1.144,0 -1.793,0.68 1.832,0.144 1.832,1.722 1.832,1.758 0,0.714 -0.539,1.148 -1.223,1.148 -0.714,0 -1.792,-0.609 -1.792,-1.973 0,-1.543 1.578,-2.332 2.976,-2.332 3.66,0 5.164,6.563 5.559,8.356 0.644,2.761 2.402,12.297 2.582,13.375 z"
         style="fill:#000000;fill-opacity:1;fill-rule:nonzero;stroke:none"
         id="path311" /><path
         d="m 943.707,435.844 c 0,0.109 0,0.18 -0.609,0.789 -3.586,3.621 -5.594,9.539 -5.594,16.851 0,6.958 1.687,12.946 5.844,17.176 0.359,0.324 0.359,0.395 0.359,0.5 0,0.219 -0.18,0.289 -0.324,0.289 -0.465,0 -3.406,-2.582 -5.16,-6.097 -1.828,-3.621 -2.657,-7.457 -2.657,-11.868 0,-3.191 0.504,-7.457 2.368,-11.292 2.117,-4.305 5.054,-6.633 5.449,-6.633 0.144,0 0.324,0.07 0.324,0.285 z"
         style="fill:#000000;fill-opacity:1;fill-rule:nonzero;stroke:none"
         id="path313" /><path
         d="m 961.434,450.582 h -0.789 c -0.11,-0.609 -0.395,-2.582 -0.754,-3.156 -0.25,-0.324 -2.293,-0.324 -3.371,-0.324 h -6.633 c 0.968,0.824 3.156,3.121 4.09,3.98 5.449,5.02 7.457,6.887 7.457,10.434 0,4.125 -3.262,6.886 -7.422,6.886 -4.16,0 -6.598,-3.55 -6.598,-6.632 0,-1.832 1.578,-1.832 1.684,-1.832 0.754,0 1.687,0.539 1.687,1.687 0,1.004 -0.683,1.684 -1.687,1.684 -0.321,0 -0.395,0 -0.5,-0.035 0.679,2.437 2.617,4.085 4.949,4.085 3.047,0 4.91,-2.542 4.91,-5.843 0,-3.047 -1.758,-5.699 -3.801,-7.996 l -7.242,-8.102 v -0.859 H 960.5 Z"
         style="fill:#000000;fill-opacity:1;fill-rule:nonzero;stroke:none"
         id="path315" /><path
         d="m 973.258,453.484 c 0,2.727 -0.36,7.172 -2.367,11.333 -2.118,4.3 -5.055,6.632 -5.45,6.632 -0.144,0 -0.324,-0.07 -0.324,-0.289 0,-0.105 0,-0.176 0.61,-0.789 3.586,-3.621 5.593,-9.535 5.593,-16.851 0,-6.953 -1.683,-12.942 -5.843,-17.172 -0.36,-0.324 -0.36,-0.395 -0.36,-0.504 0,-0.215 0.18,-0.285 0.324,-0.285 0.465,0 3.407,2.582 5.161,6.093 1.832,3.657 2.656,7.532 2.656,11.832 z"
         style="fill:#000000;fill-opacity:1;fill-rule:nonzero;stroke:none"
         id="path317" /><path
         d="m 1224.84,457.914 c 0.715,0 1.004,0 1.004,0.68 0,0.359 -0.289,0.359 -0.934,0.359 h -2.902 c 0.68,3.692 1.18,6.239 1.469,7.387 0.214,0.859 0.968,1.684 1.898,1.684 0.754,0 1.508,-0.321 1.867,-0.645 -1.398,-0.145 -1.828,-1.184 -1.828,-1.793 0,-0.715 0.535,-1.148 1.219,-1.148 0.715,0 1.793,0.609 1.793,1.972 0,1.508 -1.508,2.332 -3.086,2.332 -1.543,0 -3.047,-1.148 -3.766,-2.547 -0.644,-1.253 -1.004,-2.546 -1.828,-7.242 h -2.402 c -0.68,0 -1.039,0 -1.039,-0.644 0,-0.395 0.215,-0.395 0.933,-0.395 h 2.293 c -0.644,-3.336 -2.113,-11.437 -2.937,-15.273 -0.614,-3.121 -1.149,-5.739 -2.942,-5.739 -0.109,0 -1.148,0 -1.793,0.68 1.829,0.145 1.829,1.723 1.829,1.758 0,0.719 -0.54,1.148 -1.219,1.148 -0.719,0 -1.793,-0.609 -1.793,-1.972 0,-1.543 1.578,-2.332 2.976,-2.332 3.657,0 5.164,6.562 5.559,8.355 0.644,2.762 2.402,12.297 2.578,13.375 z"
         style="fill:#000000;fill-opacity:1;fill-rule:nonzero;stroke:none"
         id="path319" /><path
         d="m 1241.57,434.785 c 0,0.11 0,0.18 -0.609,0.789 -3.586,3.621 -5.594,9.539 -5.594,16.852 0,6.957 1.684,12.945 5.844,17.176 0.359,0.324 0.359,0.394 0.359,0.504 0,0.214 -0.179,0.285 -0.324,0.285 -0.465,0 -3.406,-2.582 -5.164,-6.094 -1.828,-3.621 -2.652,-7.461 -2.652,-11.871 0,-3.192 0.5,-7.457 2.367,-11.293 2.113,-4.301 5.055,-6.633 5.449,-6.633 0.145,0 0.324,0.07 0.324,0.285 z"
         style="fill:#000000;fill-opacity:1;fill-rule:nonzero;stroke:none"
         id="path321" /><path
         d="m 1253.844,466.484 c 0,0.825 0,0.86 -0.715,0.86 -0.863,-0.969 -2.656,-2.297 -6.348,-2.297 v -1.039 c 0.824,0 2.617,0 4.59,0.934 v -18.68 c 0,-1.293 -0.109,-1.723 -3.262,-1.723 h -1.113 V 443.5 c 0.969,0.07 4.445,0.07 5.629,0.07 1.184,0 4.625,0 5.594,-0.07 v 1.039 h -1.114 c -3.152,0 -3.261,0.43 -3.261,1.723 z"
         style="fill:#000000;fill-opacity:1;fill-rule:nonzero;stroke:none"
         id="path323" /><path
         d="m 1271.117,452.426 c 0,2.726 -0.359,7.172 -2.367,11.332 -2.113,4.301 -5.055,6.633 -5.449,6.633 -0.145,0 -0.321,-0.071 -0.321,-0.285 0,-0.11 0,-0.18 0.61,-0.789 3.582,-3.622 5.59,-9.54 5.59,-16.852 0,-6.957 -1.684,-12.945 -5.844,-17.176 -0.356,-0.324 -0.356,-0.394 -0.356,-0.504 0,-0.215 0.176,-0.285 0.321,-0.285 0.465,0 3.406,2.582 5.164,6.094 1.828,3.66 2.652,7.531 2.652,11.832 z"
         style="fill:#000000;fill-opacity:1;fill-rule:nonzero;stroke:none"
         id="path325" /><path
         d="m 303.418,271.246 c 0.719,0 1.004,0 1.004,0.684 0,0.359 -0.285,0.359 -0.93,0.359 h -2.906 c 0.68,3.692 1.184,6.238 1.469,7.383 0.215,0.863 0.968,1.687 1.902,1.687 0.754,0 1.504,-0.324 1.863,-0.644 -1.398,-0.145 -1.828,-1.184 -1.828,-1.793 0,-0.719 0.539,-1.148 1.219,-1.148 0.719,0 1.793,0.609 1.793,1.972 0,1.504 -1.504,2.328 -3.082,2.328 -1.543,0 -3.051,-1.144 -3.766,-2.543 -0.644,-1.257 -1.004,-2.547 -1.828,-7.242 h -2.402 c -0.684,0 -1.039,0 -1.039,-0.648 0,-0.395 0.215,-0.395 0.929,-0.395 h 2.297 c -0.648,-3.332 -2.117,-11.437 -2.941,-15.273 -0.609,-3.117 -1.149,-5.739 -2.942,-5.739 -0.105,0 -1.144,0 -1.792,0.684 1.828,0.145 1.828,1.719 1.828,1.758 0,0.715 -0.536,1.144 -1.219,1.144 -0.715,0 -1.793,-0.609 -1.793,-1.972 0,-1.539 1.578,-2.328 2.976,-2.328 3.661,0 5.165,6.562 5.559,8.355 0.645,2.758 2.402,12.297 2.582,13.371 z"
         style="fill:#000000;fill-opacity:1;fill-rule:nonzero;stroke:none"
         id="path327" /><path
         d="m 320.148,248.121 c 0,0.106 0,0.18 -0.609,0.789 -3.586,3.621 -5.594,9.535 -5.594,16.852 0,6.957 1.688,12.945 5.844,17.176 0.359,0.32 0.359,0.394 0.359,0.5 0,0.214 -0.179,0.289 -0.324,0.289 -0.465,0 -3.406,-2.582 -5.16,-6.098 -1.828,-3.621 -2.656,-7.457 -2.656,-11.867 0,-3.192 0.504,-7.457 2.367,-11.293 2.117,-4.305 5.055,-6.637 5.449,-6.637 0.145,0 0.324,0.074 0.324,0.289 z"
         style="fill:#000000;fill-opacity:1;fill-rule:nonzero;stroke:none"
         id="path329" /><path
         d="m 332.426,279.817 c 0,0.824 0,0.859 -0.719,0.859 -0.859,-0.965 -2.652,-2.293 -6.348,-2.293 v -1.039 c 0.829,0 2.618,0 4.59,0.93 v -18.68 c 0,-1.289 -0.105,-1.719 -3.261,-1.719 h -1.114 v -1.043 c 0.969,0.074 4.449,0.074 5.633,0.074 1.18,0 4.625,0 5.594,-0.074 v 1.043 h -1.113 c -3.157,0 -3.262,0.43 -3.262,1.719 z"
         style="fill:#000000;fill-opacity:1;fill-rule:nonzero;stroke:none"
         id="path331" /><path
         d="m 349.699,265.762 c 0,2.726 -0.359,7.172 -2.367,11.332 -2.117,4.301 -5.055,6.633 -5.449,6.633 -0.145,0 -0.324,-0.075 -0.324,-0.289 0,-0.106 0,-0.18 0.609,-0.789 3.586,-3.622 5.594,-9.536 5.594,-16.852 0,-6.957 -1.684,-12.941 -5.844,-17.176 -0.359,-0.32 -0.359,-0.394 -0.359,-0.5 0,-0.215 0.179,-0.289 0.324,-0.289 0.465,0 3.406,2.582 5.16,6.098 1.832,3.656 2.656,7.527 2.656,11.832 z"
         style="fill:#000000;fill-opacity:1;fill-rule:nonzero;stroke:none"
         id="path333" /><g
         id="g335"
         transform="matrix(1,0,0,-1,0,1082.0548)"><path
           d="m 241.836,814.543 c 0,28.66 -23.234,51.895 -51.891,51.895 -28.66,0 -51.894,-23.235 -51.894,-51.895 0,-28.656 23.234,-51.891 51.894,-51.891 28.657,0 51.891,23.235 51.891,51.891 z"
           style="fill:none;stroke:#000000;stroke-width:2.05483;stroke-linecap:round;stroke-linejoin:miter;stroke-miterlimit:4;stroke-dasharray:none;stroke-opacity:1"
           id="path337" /></g><g
         id="g339"
         transform="matrix(1,0,0,-1,0,1082.0548)"><path
           d="m 265.574,670.473 -53.336,93.742"
           style="fill:none;stroke:#000000;stroke-width:0.8;stroke-linecap:butt;stroke-linejoin:miter;stroke-miterlimit:4;stroke-dasharray:none;stroke-opacity:1"
           id="path341" /></g><g
         id="g343"
         transform="matrix(0.568966,1,1,-0.568966,0,1082.0548)"><path
           d="m -479.144,488.812 2.78,-2.781 -9.734,2.78 9.735,2.782 z"
           style="fill:#000000;fill-opacity:1;fill-rule:evenodd;stroke:#000000;stroke-width:0.695331;stroke-linecap:butt;stroke-linejoin:miter;stroke-miterlimit:4;stroke-dasharray:none;stroke-opacity:1"
           id="path345" /></g><g
         id="g347"
         transform="rotate(180,0,541.0274)"><path
           d="m -264.188,815.77 c 0,28.66 -23.23,51.89 -51.89,51.89 -28.66,0 -51.895,-23.23 -51.895,-51.89 0,-28.661 23.235,-51.891 51.895,-51.891 28.66,0 51.89,23.23 51.89,51.891 z"
           style="fill:none;stroke:#000000;stroke-width:2.05483;stroke-linecap:round;stroke-linejoin:miter;stroke-miterlimit:4;stroke-dasharray:none;stroke-opacity:1"
           id="path349" /></g><g
         id="g351"
         transform="matrix(1,0,0,-1,0,1082.0548)"><path
           d="m 304.555,680.016 8.89,81.621"
           style="fill:none;stroke:#000000;stroke-width:0.8;stroke-linecap:butt;stroke-linejoin:miter;stroke-miterlimit:4;stroke-dasharray:none;stroke-opacity:1"
           id="path353" /></g><g
         id="g355"
         transform="matrix(-0.108911,1,1,0.108911,0,1082.0548)"><path
           d="m -778.493,227.792 3.183,-3.181 -11.136,3.182 11.134,3.181 z"
           style="fill:#000000;fill-opacity:1;fill-rule:evenodd;stroke:#000000;stroke-width:0.795297;stroke-linecap:butt;stroke-linejoin:miter;stroke-miterlimit:4;stroke-dasharray:none;stroke-opacity:1"
           id="path357" /></g><path
         d="m 174.438,271.992 c 0.718,0 1.003,0 1.003,0.68 0,0.359 -0.285,0.359 -0.929,0.359 h -2.907 c 0.684,3.692 1.184,6.239 1.469,7.387 0.219,0.859 0.969,1.684 1.903,1.684 0.753,0 1.503,-0.321 1.863,-0.645 -1.399,-0.144 -1.828,-1.183 -1.828,-1.793 0,-0.719 0.539,-1.148 1.218,-1.148 0.719,0 1.793,0.609 1.793,1.972 0,1.508 -1.503,2.332 -3.082,2.332 -1.543,0 -3.046,-1.148 -3.765,-2.546 -0.645,-1.254 -1.004,-2.547 -1.828,-7.243 h -2.403 c -0.683,0 -1.039,0 -1.039,-0.644 0,-0.395 0.215,-0.395 0.93,-0.395 h 2.297 c -0.645,-3.336 -2.117,-11.437 -2.942,-15.277 -0.609,-3.117 -1.148,-5.734 -2.941,-5.734 -0.105,0 -1.145,0 -1.793,0.679 1.832,0.145 1.832,1.723 1.832,1.758 0,0.719 -0.539,1.149 -1.219,1.149 -0.718,0 -1.793,-0.61 -1.793,-1.973 0,-1.543 1.575,-2.332 2.973,-2.332 3.66,0 5.164,6.562 5.559,8.355 0.644,2.762 2.402,12.297 2.582,13.375 z"
         style="fill:#000000;fill-opacity:1;fill-rule:nonzero;stroke:none"
         id="path359" /><path
         d="m 191.168,248.863 c 0,0.11 0,0.18 -0.609,0.789 -3.586,3.622 -5.594,9.54 -5.594,16.852 0,6.957 1.687,12.945 5.844,17.176 0.359,0.324 0.359,0.394 0.359,0.504 0,0.215 -0.18,0.285 -0.32,0.285 -0.469,0 -3.407,-2.582 -5.164,-6.094 -1.829,-3.621 -2.653,-7.461 -2.653,-11.871 0,-3.191 0.5,-7.457 2.364,-11.293 2.117,-4.305 5.058,-6.633 5.453,-6.633 0.14,0 0.32,0.071 0.32,0.285 z"
         style="fill:#000000;fill-opacity:1;fill-rule:nonzero;stroke:none"
         id="path361" /><path
         d="m 208.895,263.602 h -0.79 c -0.105,-0.61 -0.394,-2.582 -0.753,-3.157 -0.25,-0.324 -2.293,-0.324 -3.372,-0.324 h -6.632 c 0.968,0.828 3.156,3.121 4.09,3.981 5.449,5.019 7.457,6.886 7.457,10.433 0,4.125 -3.262,6.887 -7.422,6.887 -4.16,0 -6.598,-3.551 -6.598,-6.633 0,-1.828 1.578,-1.828 1.684,-1.828 0.754,0 1.687,0.535 1.687,1.684 0,1.004 -0.683,1.683 -1.687,1.683 -0.321,0 -0.395,0 -0.5,-0.035 0.679,2.438 2.617,4.09 4.949,4.09 3.047,0 4.91,-2.547 4.91,-5.848 0,-3.047 -1.758,-5.699 -3.801,-7.992 l -7.242,-8.105 v -0.86 h 13.086 z"
         style="fill:#000000;fill-opacity:1;fill-rule:nonzero;stroke:none"
         id="path363" /><path
         d="m 220.719,266.504 c 0,2.727 -0.36,7.172 -2.367,11.332 -2.118,4.301 -5.055,6.633 -5.45,6.633 -0.144,0 -0.324,-0.07 -0.324,-0.285 0,-0.11 0,-0.18 0.61,-0.789 3.585,-3.621 5.593,-9.539 5.593,-16.852 0,-6.957 -1.683,-12.945 -5.843,-17.176 -0.36,-0.324 -0.36,-0.394 -0.36,-0.504 0,-0.214 0.18,-0.285 0.324,-0.285 0.465,0 3.407,2.582 5.164,6.094 1.829,3.66 2.653,7.531 2.653,11.832 z"
         style="fill:#000000;fill-opacity:1;fill-rule:nonzero;stroke:none"
         id="path365" /><g
         id="g367"
         transform="rotate(180,0,541.0274)"><path
           d="m -511.5,815.406 c 0,28.66 -23.234,51.895 -51.891,51.895 -28.66,0 -51.894,-23.235 -51.894,-51.895 0,-28.66 23.234,-51.89 51.894,-51.89 28.657,0 51.891,23.23 51.891,51.89 z"
           style="fill:none;stroke:#000000;stroke-width:2.05483;stroke-linecap:round;stroke-linejoin:miter;stroke-miterlimit:4;stroke-dasharray:none;stroke-opacity:1"
           id="path369" /></g><g
         id="g371"
         transform="matrix(1,0,0,-1,0,1082.0548)"><path
           d="m 489.152,816.633 c 0,28.66 -23.234,51.89 -51.894,51.89 -28.66,0 -51.891,-23.23 -51.891,-51.89 0,-28.66 23.231,-51.895 51.891,-51.895 28.66,0 51.894,23.235 51.894,51.895 z"
           style="fill:none;stroke:#000000;stroke-width:2.05483;stroke-linecap:round;stroke-linejoin:miter;stroke-miterlimit:4;stroke-dasharray:none;stroke-opacity:1"
           id="path373" /></g><path
         d="m 421.785,270.867 c 0.719,0 1.004,0 1.004,0.68 0,0.359 -0.285,0.359 -0.93,0.359 h -2.906 c 0.684,3.692 1.184,6.239 1.473,7.387 0.215,0.859 0.965,1.684 1.898,1.684 0.754,0 1.508,-0.325 1.864,-0.645 -1.399,-0.144 -1.829,-1.183 -1.829,-1.793 0,-0.719 0.539,-1.148 1.219,-1.148 0.719,0 1.793,0.609 1.793,1.972 0,1.504 -1.504,2.332 -3.082,2.332 -1.543,0 -3.047,-1.148 -3.766,-2.546 -0.644,-1.254 -1.003,-2.547 -1.828,-7.243 h -2.402 c -0.68,0 -1.039,0 -1.039,-0.648 0,-0.391 0.215,-0.391 0.934,-0.391 h 2.292 c -0.644,-3.336 -2.117,-11.441 -2.941,-15.277 -0.609,-3.117 -1.144,-5.734 -2.937,-5.734 -0.11,0 -1.149,0 -1.793,0.679 1.828,0.145 1.828,1.723 1.828,1.758 0,0.715 -0.539,1.149 -1.219,1.149 -0.719,0 -1.793,-0.614 -1.793,-1.973 0,-1.543 1.578,-2.332 2.977,-2.332 3.656,0 5.16,6.562 5.554,8.355 0.649,2.762 2.403,12.297 2.582,13.375 z"
         style="fill:#000000;fill-opacity:1;fill-rule:nonzero;stroke:none"
         id="path375" /><path
         d="m 438.516,247.738 c 0,0.11 0,0.18 -0.61,0.789 -3.586,3.622 -5.593,9.54 -5.593,16.852 0,6.957 1.687,12.945 5.847,17.176 0.356,0.324 0.356,0.394 0.356,0.5 0,0.215 -0.18,0.289 -0.321,0.289 -0.468,0 -3.406,-2.582 -5.164,-6.098 -1.828,-3.621 -2.652,-7.457 -2.652,-11.867 0,-3.191 0.5,-7.457 2.367,-11.293 2.113,-4.305 5.055,-6.633 5.449,-6.633 0.141,0 0.321,0.071 0.321,0.285 z"
         style="fill:#000000;fill-opacity:1;fill-rule:nonzero;stroke:none"
         id="path377" /><path
         d="m 450.793,279.434 c 0,0.824 0,0.863 -0.719,0.863 C 449.215,279.328 447.422,278 443.73,278 v -1.039 c 0.825,0 2.618,0 4.59,0.934 v -18.684 c 0,-1.289 -0.109,-1.719 -3.265,-1.719 h -1.11 v -1.039 c 0.969,0.071 4.446,0.071 5.629,0.071 1.184,0 4.625,0 5.594,-0.071 v 1.039 h -1.113 c -3.157,0 -3.262,0.43 -3.262,1.719 z"
         style="fill:#000000;fill-opacity:1;fill-rule:nonzero;stroke:none"
         id="path379" /><path
         d="m 468.066,265.379 c 0,2.727 -0.359,7.172 -2.367,11.332 -2.113,4.301 -5.054,6.633 -5.449,6.633 -0.145,0 -0.324,-0.074 -0.324,-0.289 0,-0.106 0,-0.176 0.609,-0.789 3.586,-3.621 5.594,-9.535 5.594,-16.852 0,-6.953 -1.684,-12.941 -5.844,-17.172 -0.359,-0.324 -0.359,-0.394 -0.359,-0.504 0,-0.214 0.179,-0.285 0.324,-0.285 0.465,0 3.406,2.582 5.164,6.094 1.828,3.656 2.652,7.531 2.652,11.832 z"
         style="fill:#000000;fill-opacity:1;fill-rule:nonzero;stroke:none"
         id="path381" /><path
         d="m 548.953,271.399 c 0.719,0 1.004,0 1.004,0.683 0,0.356 -0.285,0.356 -0.934,0.356 h -2.902 c 0.68,3.695 1.184,6.242 1.469,7.386 0.215,0.864 0.969,1.688 1.902,1.688 0.75,0 1.504,-0.324 1.863,-0.649 -1.398,-0.14 -1.828,-1.179 -1.828,-1.793 0,-0.714 0.539,-1.144 1.219,-1.144 0.715,0 1.793,0.609 1.793,1.973 0,1.503 -1.508,2.328 -3.086,2.328 -1.539,0 -3.047,-1.149 -3.762,-2.543 -0.648,-1.258 -1.003,-2.547 -1.828,-7.246 h -2.402 c -0.684,0 -1.043,0 -1.043,-0.645 0,-0.394 0.215,-0.394 0.934,-0.394 h 2.293 c -0.645,-3.332 -2.114,-11.438 -2.938,-15.274 -0.609,-3.121 -1.148,-5.738 -2.941,-5.738 -0.106,0 -1.149,0 -1.793,0.683 1.828,0.141 1.828,1.719 1.828,1.754 0,0.719 -0.535,1.149 -1.219,1.149 -0.715,0 -1.793,-0.61 -1.793,-1.973 0,-1.539 1.578,-2.328 2.977,-2.328 3.656,0 5.164,6.559 5.558,8.352 0.645,2.761 2.403,12.3 2.582,13.375 z"
         style="fill:#000000;fill-opacity:1;fill-rule:nonzero;stroke:none"
         id="path383" /><path
         d="m 565.684,248.274 c 0,0.105 0,0.179 -0.61,0.789 -3.586,3.621 -5.594,9.535 -5.594,16.851 0,6.957 1.684,12.942 5.844,17.176 0.36,0.32 0.36,0.391 0.36,0.5 0,0.215 -0.18,0.285 -0.325,0.285 -0.464,0 -3.406,-2.578 -5.164,-6.094 -1.828,-3.621 -2.652,-7.457 -2.652,-11.867 0,-3.191 0.504,-7.457 2.367,-11.297 2.117,-4.3 5.055,-6.633 5.449,-6.633 0.145,0 0.325,0.075 0.325,0.29 z"
         style="fill:#000000;fill-opacity:1;fill-rule:nonzero;stroke:none"
         id="path385" /><path
         d="m 583.695,268.457 c 0,2.977 -0.179,5.883 -1.468,8.606 -1.473,2.976 -4.051,3.765 -5.809,3.765 -2.082,0 -4.625,-1.039 -5.953,-4.015 -1.004,-2.258 -1.363,-4.481 -1.363,-8.356 0,-3.476 0.25,-6.094 1.543,-8.64 1.398,-2.723 3.871,-3.586 5.738,-3.586 3.117,0 4.91,1.867 5.949,3.945 1.293,2.691 1.363,6.203 1.363,8.281 z m -7.312,-11.508 c -1.149,0 -3.481,0.645 -4.16,4.555 -0.395,2.148 -0.395,4.875 -0.395,7.387 0,2.937 0,5.593 0.574,7.707 0.61,2.402 2.438,3.515 3.981,3.515 1.359,0 3.441,-0.824 4.121,-3.91 0.465,-2.043 0.465,-4.875 0.465,-7.312 0,-2.403 0,-5.129 -0.391,-7.317 -0.683,-3.945 -2.941,-4.625 -4.195,-4.625 z"
         style="fill:#000000;fill-opacity:1;fill-rule:nonzero;stroke:none"
         id="path387" /><path
         d="m 595.23,265.914 c 0,2.723 -0.355,7.172 -2.363,11.328 -2.117,4.305 -5.058,6.633 -5.453,6.633 -0.141,0 -0.32,-0.07 -0.32,-0.285 0,-0.109 0,-0.18 0.609,-0.789 3.586,-3.621 5.594,-9.539 5.594,-16.852 0,-6.957 -1.688,-12.945 -5.844,-17.175 -0.359,-0.321 -0.359,-0.395 -0.359,-0.5 0,-0.215 0.179,-0.29 0.32,-0.29 0.469,0 3.406,2.583 5.164,6.098 1.828,3.656 2.652,7.527 2.652,11.832 z"
         style="fill:#000000;fill-opacity:1;fill-rule:nonzero;stroke:none"
         id="path389" /><g
         id="g391"
         transform="matrix(1,0,0,-1,0,1082.0548)"><path
           d="m 483.867,674.637 -32,91.429"
           style="fill:none;stroke:#000000;stroke-width:0.8;stroke-linecap:butt;stroke-linejoin:miter;stroke-miterlimit:4;stroke-dasharray:none;stroke-opacity:1"
           id="path393" /></g><g
         id="g395"
         transform="matrix(0.35,1,1,-0.35,0,1082.0548)"><path
           d="m -534.019,641.418 3.02,-3.022 -10.571,3.021 10.573,3.022 z"
           style="fill:#000000;fill-opacity:1;fill-rule:evenodd;stroke:#000000;stroke-width:0.755087;stroke-linecap:butt;stroke-linejoin:miter;stroke-miterlimit:4;stroke-dasharray:none;stroke-opacity:1"
           id="path397" /></g><g
         id="g399"
         transform="matrix(1,0,0,-1,0,1082.0548)"><path
           d="m 530.672,678.184 17.523,87.91"
           style="fill:none;stroke:#000000;stroke-width:0.8;stroke-linecap:butt;stroke-linejoin:miter;stroke-miterlimit:4;stroke-dasharray:none;stroke-opacity:1"
           id="path401" /></g><g
         id="g403"
         transform="matrix(-0.199315,1,1,0.199315,0,1082.0548)"><path
           d="m -834.064,380.392 3.138,-3.14 -10.985,3.138 10.984,3.139 z"
           style="fill:#000000;fill-opacity:1;fill-rule:evenodd;stroke:#000000;stroke-width:0.784568;stroke-linecap:butt;stroke-linejoin:miter;stroke-miterlimit:4;stroke-dasharray:none;stroke-opacity:1"
           id="path405" /></g><g
         id="g407"
         transform="rotate(180,0,541.0274)"><path
           d="m -745.328,813.121 c 0,28.66 -23.235,51.891 -51.895,51.891 -28.656,0 -51.89,-23.231 -51.89,-51.891 0,-28.66 23.234,-51.891 51.89,-51.891 28.66,0 51.895,23.231 51.895,51.891 z"
           style="fill:none;stroke:#000000;stroke-width:2.05483;stroke-linecap:round;stroke-linejoin:miter;stroke-miterlimit:4;stroke-dasharray:none;stroke-opacity:1"
           id="path409" /></g><g
         id="g411"
         transform="matrix(1,0,0,-1,0,1082.0548)"><path
           d="m 703.949,673.906 62.961,93.727"
           style="fill:none;stroke:#000000;stroke-width:0.8;stroke-linecap:butt;stroke-linejoin:miter;stroke-miterlimit:4;stroke-dasharray:none;stroke-opacity:1"
           id="path413" /></g><g
         id="g415"
         transform="matrix(-0.671775,1,1,0.671775,0,1082.0548)"><path
           d="m -877.284,173.111 2.654,-2.654 -9.295,2.654 9.294,2.657 z"
           style="fill:#000000;fill-opacity:1;fill-rule:evenodd;stroke:#000000;stroke-width:0.66407;stroke-linecap:butt;stroke-linejoin:miter;stroke-miterlimit:4;stroke-dasharray:none;stroke-opacity:1"
           id="path417" /></g><g
         id="g419"
         transform="matrix(1,0,0,-1,0,1082.0548)"><path
           d="m 734.18,814.348 c 0,28.66 -23.235,51.89 -51.895,51.89 -28.656,0 -51.89,-23.23 -51.89,-51.89 0,-28.66 23.234,-51.895 51.89,-51.895 28.66,0 51.895,23.235 51.895,51.895 z"
           style="fill:none;stroke:#000000;stroke-width:2.05483;stroke-linecap:round;stroke-linejoin:miter;stroke-miterlimit:4;stroke-dasharray:none;stroke-opacity:1"
           id="path421" /></g><g
         id="g423"
         transform="matrix(1,0,0,-1,0,1082.0548)"><path
           d="M 678.984,680.086 V 760.09"
           style="fill:none;stroke:#000000;stroke-width:0.8;stroke-linecap:butt;stroke-linejoin:miter;stroke-miterlimit:4;stroke-dasharray:none;stroke-opacity:1"
           id="path425" /></g><g
         id="g427"
         transform="matrix(0,1,1,0,0,1082.0548)"><path
           d="m -752.09,678.984 3.199,-3.199 -11.199,3.199 11.199,3.203 z"
           style="fill:#000000;fill-opacity:1;fill-rule:evenodd;stroke:#000000;stroke-width:0.8;stroke-linecap:butt;stroke-linejoin:miter;stroke-miterlimit:4;stroke-dasharray:none;stroke-opacity:1"
           id="path429" /></g><path
         d="m 666.887,274.098 c 0.718,0 1.004,0 1.004,0.679 0,0.36 -0.286,0.36 -0.93,0.36 h -2.906 c 0.679,3.695 1.183,6.238 1.468,7.387 0.215,0.859 0.969,1.687 1.903,1.687 0.754,0 1.504,-0.324 1.863,-0.648 -1.398,-0.141 -1.828,-1.184 -1.828,-1.793 0,-0.715 0.539,-1.145 1.219,-1.145 0.718,0 1.793,0.609 1.793,1.969 0,1.508 -1.504,2.332 -3.082,2.332 -1.543,0 -3.051,-1.149 -3.766,-2.547 -0.645,-1.254 -1.004,-2.543 -1.828,-7.242 h -2.402 c -0.684,0 -1.04,0 -1.04,-0.645 0,-0.394 0.215,-0.394 0.93,-0.394 h 2.297 c -0.648,-3.336 -2.117,-11.438 -2.941,-15.274 -0.61,-3.121 -1.149,-5.738 -2.942,-5.738 -0.105,0 -1.144,0 -1.793,0.684 1.832,0.14 1.832,1.718 1.832,1.754 0,0.718 -0.539,1.148 -1.222,1.148 -0.715,0 -1.793,-0.609 -1.793,-1.973 0,-1.543 1.578,-2.328 2.976,-2.328 3.66,0 5.164,6.559 5.559,8.352 0.644,2.761 2.402,12.301 2.582,13.375 z"
         style="fill:#000000;fill-opacity:1;fill-rule:nonzero;stroke:none"
         id="path431" /><path
         d="m 683.617,250.973 c 0,0.105 0,0.176 -0.609,0.785 -3.586,3.625 -5.594,9.539 -5.594,16.855 0,6.954 1.688,12.942 5.844,17.172 0.359,0.324 0.359,0.395 0.359,0.504 0,0.215 -0.179,0.285 -0.324,0.285 -0.465,0 -3.406,-2.582 -5.16,-6.093 -1.828,-3.622 -2.656,-7.457 -2.656,-11.868 0,-3.191 0.503,-7.461 2.367,-11.296 2.117,-4.301 5.058,-6.633 5.449,-6.633 0.145,0 0.324,0.07 0.324,0.289 z"
         style="fill:#000000;fill-opacity:1;fill-rule:nonzero;stroke:none"
         id="path433" /><path
         d="m 695.895,282.668 c 0,0.824 0,0.859 -0.719,0.859 -0.86,-0.968 -2.653,-2.293 -6.348,-2.293 v -1.042 c 0.828,0 2.617,0 4.59,0.933 v -18.68 c 0,-1.293 -0.105,-1.722 -3.262,-1.722 h -1.109 v -1.039 c 0.965,0.07 4.445,0.07 5.629,0.07 1.183,0 4.625,0 5.594,-0.07 v 1.039 h -1.114 c -3.156,0 -3.261,0.429 -3.261,1.722 z"
         style="fill:#000000;fill-opacity:1;fill-rule:nonzero;stroke:none"
         id="path435" /><path
         d="m 713.168,268.613 c 0,2.723 -0.359,7.168 -2.367,11.329 -2.117,4.304 -5.055,6.632 -5.449,6.632 -0.145,0 -0.325,-0.07 -0.325,-0.285 0,-0.109 0,-0.18 0.61,-0.789 3.586,-3.621 5.593,-9.539 5.593,-16.851 0,-6.957 -1.683,-12.946 -5.843,-17.176 -0.36,-0.324 -0.36,-0.395 -0.36,-0.5 0,-0.219 0.18,-0.289 0.325,-0.289 0.464,0 3.406,2.582 5.16,6.097 1.832,3.657 2.656,7.528 2.656,11.832 z"
         style="fill:#000000;fill-opacity:1;fill-rule:nonzero;stroke:none"
         id="path437" /><path
         d="m 781.867,274.828 c 0.719,0 1.004,0 1.004,0.68 0,0.359 -0.285,0.359 -0.933,0.359 h -2.903 c 0.68,3.696 1.184,6.239 1.469,7.387 0.215,0.859 0.969,1.684 1.902,1.684 0.75,0 1.504,-0.321 1.864,-0.645 -1.399,-0.144 -1.829,-1.184 -1.829,-1.793 0,-0.715 0.539,-1.148 1.219,-1.148 0.719,0 1.793,0.613 1.793,1.972 0,1.508 -1.508,2.332 -3.082,2.332 -1.543,0 -3.051,-1.148 -3.766,-2.547 -0.644,-1.253 -1.003,-2.542 -1.828,-7.242 h -2.402 c -0.684,0 -1.043,0 -1.043,-0.644 0,-0.395 0.215,-0.395 0.934,-0.395 h 2.297 c -0.649,-3.336 -2.118,-11.437 -2.942,-15.273 -0.609,-3.121 -1.148,-5.738 -2.941,-5.738 -0.106,0 -1.149,0 -1.793,0.679 1.828,0.145 1.828,1.723 1.828,1.758 0,0.719 -0.535,1.148 -1.219,1.148 -0.715,0 -1.793,-0.609 -1.793,-1.972 0,-1.543 1.578,-2.332 2.977,-2.332 3.656,0 5.164,6.562 5.558,8.355 0.645,2.762 2.403,12.301 2.582,13.375 z"
         style="fill:#000000;fill-opacity:1;fill-rule:nonzero;stroke:none"
         id="path439" /><path
         d="m 798.598,251.699 c 0,0.11 0,0.18 -0.61,0.789 -3.586,3.621 -5.593,9.539 -5.593,16.852 0,6.957 1.683,12.945 5.843,17.176 0.36,0.324 0.36,0.394 0.36,0.504 0,0.214 -0.18,0.285 -0.325,0.285 -0.464,0 -3.406,-2.582 -5.16,-6.094 -1.832,-3.621 -2.656,-7.457 -2.656,-11.871 0,-3.188 0.504,-7.457 2.367,-11.293 2.117,-4.301 5.055,-6.633 5.449,-6.633 0.145,0 0.325,0.07 0.325,0.285 z"
         style="fill:#000000;fill-opacity:1;fill-rule:nonzero;stroke:none"
         id="path441" /><path
         d="m 816.609,271.887 c 0,2.976 -0.179,5.883 -1.468,8.605 -1.473,2.977 -4.051,3.766 -5.809,3.766 -2.082,0 -4.625,-1.039 -5.953,-4.016 -1.004,-2.258 -1.363,-4.48 -1.363,-8.355 0,-3.477 0.254,-6.094 1.543,-8.641 1.398,-2.726 3.871,-3.586 5.738,-3.586 3.117,0 4.91,1.864 5.949,3.946 1.293,2.687 1.363,6.203 1.363,8.281 z m -7.312,-11.508 c -1.149,0 -3.481,0.645 -4.16,4.551 -0.395,2.152 -0.395,4.879 -0.395,7.387 0,2.941 0,5.593 0.574,7.71 0.61,2.403 2.438,3.512 3.981,3.512 1.359,0 3.441,-0.824 4.121,-3.906 0.469,-2.043 0.469,-4.875 0.469,-7.316 0,-2.403 0,-5.125 -0.395,-7.313 -0.683,-3.945 -2.941,-4.625 -4.195,-4.625 z"
         style="fill:#000000;fill-opacity:1;fill-rule:nonzero;stroke:none"
         id="path443" /><path
         d="m 828.145,269.34 c 0,2.727 -0.356,7.172 -2.364,11.332 -2.117,4.305 -5.058,6.633 -5.453,6.633 -0.14,0 -0.32,-0.071 -0.32,-0.285 0,-0.11 0,-0.18 0.609,-0.789 3.586,-3.622 5.594,-9.539 5.594,-16.852 0,-6.957 -1.688,-12.945 -5.844,-17.176 -0.359,-0.324 -0.359,-0.394 -0.359,-0.504 0,-0.215 0.18,-0.285 0.32,-0.285 0.469,0 3.406,2.582 5.164,6.094 1.828,3.66 2.653,7.531 2.653,11.832 z"
         style="fill:#000000;fill-opacity:1;fill-rule:nonzero;stroke:none"
         id="path445" /><g
         id="g447"
         transform="rotate(180,0,541.0274)"><path
           d="m -1010.355,814.617 c 0,28.66 -23.235,51.895 -51.895,51.895 -28.66,0 -51.891,-23.235 -51.891,-51.895 0,-28.66 23.231,-51.89 51.891,-51.89 28.66,0 51.895,23.23 51.895,51.89 z"
           style="fill:none;stroke:#000000;stroke-width:2.05483;stroke-linecap:round;stroke-linejoin:miter;stroke-miterlimit:4;stroke-dasharray:none;stroke-opacity:1"
           id="path449" /></g><g
         id="g451"
         transform="matrix(1,0,0,-1,0,1082.0548)"><path
           d="m 968.977,675.402 62.964,93.731"
           style="fill:none;stroke:#000000;stroke-width:0.8;stroke-linecap:butt;stroke-linejoin:miter;stroke-miterlimit:4;stroke-dasharray:none;stroke-opacity:1"
           id="path453" /></g><g
         id="g455"
         transform="matrix(-0.671775,1,1,0.671775,0,1082.0548)"><path
           d="m -1000.996,355.036 2.658,-2.656 -9.299,2.656 9.298,2.656 z"
           style="fill:#000000;fill-opacity:1;fill-rule:evenodd;stroke:#000000;stroke-width:0.66407;stroke-linecap:butt;stroke-linejoin:miter;stroke-miterlimit:4;stroke-dasharray:none;stroke-opacity:1"
           id="path457" /></g><g
         id="g459"
         transform="matrix(1,0,0,-1,0,1082.0548)"><path
           d="m 972.008,815.844 c 0,28.66 -23.235,51.89 -51.891,51.89 -28.66,0 -51.894,-23.23 -51.894,-51.89 0,-28.66 23.234,-51.895 51.894,-51.895 28.656,0 51.891,23.235 51.891,51.895 z"
           style="fill:none;stroke:#000000;stroke-width:2.05483;stroke-linecap:round;stroke-linejoin:miter;stroke-miterlimit:4;stroke-dasharray:none;stroke-opacity:1"
           id="path461" /></g><path
         d="m 904.715,272.602 c 0.719,0 1.004,0 1.004,0.679 0,0.36 -0.285,0.36 -0.93,0.36 h -2.906 c 0.683,3.695 1.183,6.238 1.472,7.386 0.215,0.86 0.965,1.684 1.899,1.684 0.754,0 1.508,-0.32 1.863,-0.644 -1.398,-0.145 -1.828,-1.184 -1.828,-1.793 0,-0.715 0.539,-1.145 1.219,-1.145 0.719,0 1.793,0.609 1.793,1.969 0,1.508 -1.504,2.332 -3.082,2.332 -1.543,0 -3.047,-1.149 -3.766,-2.547 -0.644,-1.254 -1.004,-2.543 -1.828,-7.242 h -2.402 c -0.684,0 -1.039,0 -1.039,-0.645 0,-0.394 0.214,-0.394 0.929,-0.394 h 2.297 c -0.644,-3.336 -2.117,-11.438 -2.941,-15.274 -0.61,-3.121 -1.149,-5.738 -2.942,-5.738 -0.105,0 -1.144,0 -1.793,0.68 1.832,0.144 1.832,1.722 1.832,1.757 0,0.719 -0.539,1.149 -1.218,1.149 -0.719,0 -1.793,-0.609 -1.793,-1.973 0,-1.543 1.574,-2.332 2.972,-2.332 3.661,0 5.164,6.563 5.559,8.356 0.644,2.761 2.402,12.3 2.582,13.375 z"
         style="fill:#000000;fill-opacity:1;fill-rule:nonzero;stroke:none"
         id="path463" /><path
         d="m 921.445,249.473 c 0,0.109 0,0.179 -0.609,0.789 -3.586,3.621 -5.594,9.539 -5.594,16.855 0,6.953 1.688,12.942 5.844,17.172 0.359,0.324 0.359,0.395 0.359,0.504 0,0.215 -0.179,0.285 -0.32,0.285 -0.469,0 -3.406,-2.582 -5.164,-6.094 -1.828,-3.621 -2.652,-7.457 -2.652,-11.867 0,-3.191 0.5,-7.461 2.363,-11.297 2.117,-4.3 5.058,-6.632 5.453,-6.632 0.141,0 0.32,0.07 0.32,0.285 z"
         style="fill:#000000;fill-opacity:1;fill-rule:nonzero;stroke:none"
         id="path465" /><path
         d="m 933.723,281.172 c 0,0.824 0,0.859 -0.719,0.859 -0.859,-0.968 -2.652,-2.293 -6.344,-2.293 v -1.043 c 0.824,0 2.617,0 4.586,0.934 v -18.68 c 0,-1.293 -0.105,-1.722 -3.262,-1.722 h -1.109 v -1.039 c 0.965,0.07 4.445,0.07 5.629,0.07 1.184,0 4.625,0 5.594,-0.07 v 1.039 h -1.114 c -3.156,0 -3.261,0.429 -3.261,1.722 z"
         style="fill:#000000;fill-opacity:1;fill-rule:nonzero;stroke:none"
         id="path467" /><path
         d="m 950.996,267.117 c 0,2.723 -0.359,7.168 -2.367,11.328 -2.117,4.305 -5.055,6.633 -5.449,6.633 -0.145,0 -0.325,-0.07 -0.325,-0.285 0,-0.109 0,-0.18 0.61,-0.789 3.586,-3.621 5.594,-9.539 5.594,-16.852 0,-6.957 -1.684,-12.945 -5.844,-17.175 -0.36,-0.325 -0.36,-0.395 -0.36,-0.504 0,-0.215 0.18,-0.285 0.325,-0.285 0.465,0 3.406,2.582 5.164,6.093 1.828,3.661 2.652,7.532 2.652,11.836 z"
         style="fill:#000000;fill-opacity:1;fill-rule:nonzero;stroke:none"
         id="path469" /><path
         d="m 1046.895,273.332 c 0.718,0 1.003,0 1.003,0.68 0,0.359 -0.285,0.359 -0.929,0.359 h -2.906 c 0.683,3.692 1.183,6.238 1.472,7.387 0.215,0.859 0.965,1.684 1.899,1.684 0.754,0 1.507,-0.321 1.863,-0.645 -1.399,-0.145 -1.828,-1.184 -1.828,-1.793 0,-0.715 0.539,-1.148 1.219,-1.148 0.718,0 1.792,0.609 1.792,1.972 0,1.508 -1.503,2.332 -3.082,2.332 -1.543,0 -3.046,-1.148 -3.765,-2.547 -0.645,-1.254 -1.004,-2.546 -1.828,-7.242 h -2.403 c -0.679,0 -1.039,0 -1.039,-0.644 0,-0.395 0.215,-0.395 0.93,-0.395 h 2.297 c -0.645,-3.336 -2.117,-11.437 -2.942,-15.273 -0.609,-3.121 -1.148,-5.739 -2.941,-5.739 -0.105,0 -1.144,0 -1.789,0.68 1.828,0.145 1.828,1.723 1.828,1.758 0,0.719 -0.539,1.148 -1.219,1.148 -0.718,0 -1.793,-0.609 -1.793,-1.972 0,-1.543 1.575,-2.332 2.973,-2.332 3.66,0 5.164,6.562 5.559,8.355 0.644,2.762 2.402,12.297 2.582,13.375 z"
         style="fill:#000000;fill-opacity:1;fill-rule:nonzero;stroke:none"
         id="path471" /><path
         d="m 1063.625,250.203 c 0,0.11 0,0.18 -0.609,0.789 -3.586,3.621 -5.594,9.539 -5.594,16.852 0,6.957 1.687,12.945 5.844,17.176 0.359,0.324 0.359,0.394 0.359,0.504 0,0.214 -0.18,0.285 -0.32,0.285 -0.469,0 -3.407,-2.582 -5.164,-6.094 -1.828,-3.621 -2.653,-7.461 -2.653,-11.871 0,-3.192 0.5,-7.457 2.364,-11.293 2.117,-4.301 5.058,-6.633 5.453,-6.633 0.14,0 0.32,0.07 0.32,0.285 z"
         style="fill:#000000;fill-opacity:1;fill-rule:nonzero;stroke:none"
         id="path473" /><path
         d="m 1081.637,270.391 c 0,2.976 -0.176,5.879 -1.469,8.605 -1.469,2.977 -4.051,3.766 -5.809,3.766 -2.078,0 -4.625,-1.039 -5.953,-4.016 -1.004,-2.258 -1.359,-4.484 -1.359,-8.355 0,-3.477 0.25,-6.094 1.539,-8.641 1.398,-2.726 3.875,-3.586 5.738,-3.586 3.121,0 4.91,1.863 5.953,3.945 1.289,2.688 1.36,6.204 1.36,8.282 z m -7.313,-11.508 c -1.148,0 -3.476,0.644 -4.16,4.551 -0.394,2.152 -0.394,4.879 -0.394,7.386 0,2.942 0,5.594 0.574,7.711 0.609,2.403 2.437,3.512 3.98,3.512 1.364,0 3.442,-0.824 4.125,-3.906 0.465,-2.043 0.465,-4.879 0.465,-7.317 0,-2.402 0,-5.125 -0.394,-7.312 -0.684,-3.945 -2.942,-4.625 -4.196,-4.625 z"
         style="fill:#000000;fill-opacity:1;fill-rule:nonzero;stroke:none"
         id="path475" /><path
         d="m 1093.176,267.844 c 0,2.726 -0.36,7.172 -2.367,11.332 -2.118,4.301 -5.055,6.633 -5.45,6.633 -0.144,0 -0.324,-0.071 -0.324,-0.285 0,-0.11 0,-0.18 0.61,-0.79 3.585,-3.621 5.593,-9.539 5.593,-16.851 0,-6.957 -1.683,-12.945 -5.843,-17.176 -0.36,-0.324 -0.36,-0.394 -0.36,-0.504 0,-0.215 0.18,-0.285 0.324,-0.285 0.465,0 3.407,2.582 5.164,6.094 1.829,3.66 2.653,7.531 2.653,11.832 z"
         style="fill:#000000;fill-opacity:1;fill-rule:nonzero;stroke:none"
         id="path477" /><g
         id="g479"
         transform="matrix(1,0,0,-1,0,1082.0548)"><path
           d="m 936.711,679.277 -12.93,82.426"
           style="fill:none;stroke:#000000;stroke-width:0.8;stroke-linecap:butt;stroke-linejoin:miter;stroke-miterlimit:4;stroke-dasharray:none;stroke-opacity:1"
           id="path481" /></g><g
         id="g483"
         transform="matrix(0.156863,1,1,-0.156863,0,1082.0548)"><path
           d="m -594.08,1018.213 3.16,-3.164 -11.063,3.161 11.062,3.164 z"
           style="fill:#000000;fill-opacity:1;fill-rule:evenodd;stroke:#000000;stroke-width:0.790336;stroke-linecap:butt;stroke-linejoin:miter;stroke-miterlimit:4;stroke-dasharray:none;stroke-opacity:1"
           id="path485" /></g><path
         d="m 279.66,85.633 c 0.719,0 1.004,0 1.004,0.68 0,0.359 -0.285,0.359 -0.93,0.359 h -2.906 c 0.684,3.691 1.184,6.238 1.469,7.387 0.219,0.859 0.969,1.683 1.902,1.683 0.754,0 1.504,-0.32 1.864,-0.644 -1.399,-0.145 -1.829,-1.184 -1.829,-1.793 0,-0.715 0.539,-1.149 1.219,-1.149 0.719,0 1.793,0.61 1.793,1.973 0,1.508 -1.504,2.332 -3.082,2.332 -1.543,0 -3.047,-1.148 -3.766,-2.547 -0.644,-1.254 -1.003,-2.547 -1.828,-7.242 h -2.402 c -0.684,0 -1.039,0 -1.039,-0.645 0,-0.394 0.215,-0.394 0.93,-0.394 h 2.296 c -0.644,-3.336 -2.117,-11.438 -2.941,-15.274 -0.609,-3.121 -1.148,-5.738 -2.941,-5.738 -0.106,0 -1.145,0 -1.793,0.68 1.832,0.144 1.832,1.723 1.832,1.758 0,0.718 -0.539,1.148 -1.219,1.148 -0.719,0 -1.793,-0.609 -1.793,-1.973 0,-1.542 1.574,-2.332 2.973,-2.332 3.66,0 5.164,6.563 5.558,8.356 0.645,2.762 2.403,12.297 2.582,13.375 z"
         style="fill:#000000;fill-opacity:1;fill-rule:nonzero;stroke:none"
         id="path487" /><path
         d="m 296.391,62.504 c 0,0.109 0,0.18 -0.61,0.789 -3.586,3.621 -5.593,9.539 -5.593,16.852 0,6.957 1.687,12.945 5.843,17.175 0.36,0.325 0.36,0.395 0.36,0.504 0,0.215 -0.18,0.285 -0.321,0.285 -0.468,0 -3.406,-2.582 -5.164,-6.093 -1.828,-3.621 -2.652,-7.461 -2.652,-11.871 0,-3.192 0.5,-7.457 2.363,-11.293 2.117,-4.301 5.059,-6.633 5.453,-6.633 0.141,0 0.321,0.07 0.321,0.285 z"
         style="fill:#000000;fill-opacity:1;fill-rule:nonzero;stroke:none"
         id="path489" /><path
         d="m 314.402,82.692 c 0,2.976 -0.175,5.878 -1.468,8.605 -1.469,2.977 -4.051,3.766 -5.809,3.766 -2.078,0 -4.625,-1.039 -5.953,-4.016 -1.004,-2.258 -1.359,-4.484 -1.359,-8.355 0,-3.477 0.25,-6.094 1.539,-8.641 1.398,-2.727 3.875,-3.586 5.738,-3.586 3.117,0 4.91,1.863 5.953,3.945 1.289,2.688 1.359,6.203 1.359,8.282 z M 307.09,71.184 c -1.149,0 -3.477,0.644 -4.16,4.55 -0.395,2.153 -0.395,4.879 -0.395,7.387 0,2.942 0,5.594 0.574,7.711 0.61,2.402 2.438,3.512 3.981,3.512 1.363,0 3.441,-0.824 4.121,-3.906 0.469,-2.043 0.469,-4.879 0.469,-7.317 0,-2.402 0,-5.125 -0.395,-7.312 -0.683,-3.946 -2.941,-4.625 -4.195,-4.625 z"
         style="fill:#000000;fill-opacity:1;fill-rule:nonzero;stroke:none"
         id="path491" /><path
         d="m 325.941,80.145 c 0,2.726 -0.359,7.172 -2.367,11.332 -2.117,4.3 -5.054,6.632 -5.449,6.632 -0.145,0 -0.324,-0.07 -0.324,-0.285 0,-0.109 0,-0.179 0.609,-0.789 3.586,-3.621 5.594,-9.539 5.594,-16.851 0,-6.957 -1.684,-12.946 -5.844,-17.176 -0.359,-0.324 -0.359,-0.395 -0.359,-0.504 0,-0.215 0.179,-0.285 0.324,-0.285 0.465,0 3.406,2.582 5.164,6.094 1.828,3.66 2.652,7.531 2.652,11.832 z"
         style="fill:#000000;fill-opacity:1;fill-rule:nonzero;stroke:none"
         id="path493" /><g
         id="g495"
         transform="matrix(1,0,0,-1,0,1082.0548)"><path
           d="m 133.16,999.563 c 0,28.66 -23.234,51.894 -51.894,51.894 -28.661,0 -51.891,-23.234 -51.891,-51.894 0,-28.661 23.23,-51.891 51.891,-51.891 28.66,0 51.894,23.23 51.894,51.891 z"
           style="fill:none;stroke:#000000;stroke-width:2.05483;stroke-linecap:round;stroke-linejoin:miter;stroke-miterlimit:4;stroke-dasharray:none;stroke-opacity:1"
           id="path497" /></g><g
         id="g499"
         transform="matrix(1,0,0,-1,0,1082.0548)"><path
           d="m 156.898,855.492 -53.335,93.742"
           style="fill:none;stroke:#000000;stroke-width:0.8;stroke-linecap:butt;stroke-linejoin:miter;stroke-miterlimit:4;stroke-dasharray:none;stroke-opacity:1"
           id="path501" /></g><g
         id="g503"
         transform="matrix(0.568965,1,1,-0.568965,0,1082.0548)"><path
           d="m -665.628,486.239 2.78,-2.782 -9.734,2.781 9.735,2.782 z"
           style="fill:#000000;fill-opacity:1;fill-rule:evenodd;stroke:#000000;stroke-width:0.695331;stroke-linecap:butt;stroke-linejoin:miter;stroke-miterlimit:4;stroke-dasharray:none;stroke-opacity:1"
           id="path505" /></g><g
         id="g507"
         transform="rotate(180,0,541.0274)"><path
           d="m -243.508,1000.789 c 0,28.66 -23.234,51.891 -51.894,51.891 -28.657,0 -51.891,-23.231 -51.891,-51.891 0,-28.66 23.234,-51.894 51.891,-51.894 28.66,0 51.894,23.234 51.894,51.894 z"
           style="fill:none;stroke:#000000;stroke-width:2.05483;stroke-linecap:round;stroke-linejoin:miter;stroke-miterlimit:4;stroke-dasharray:none;stroke-opacity:1"
           id="path509" /></g><g
         id="g511"
         transform="matrix(1,0,0,-1,0,1082.0548)"><path
           d="m 219.77,856.719 53.335,93.742"
           style="fill:none;stroke:#000000;stroke-width:0.8;stroke-linecap:butt;stroke-linejoin:miter;stroke-miterlimit:4;stroke-dasharray:none;stroke-opacity:1"
           id="path513" /></g><g
         id="g515"
         transform="matrix(-0.568965,1,1,0.568965,0,1082.0548)"><path
           d="m -828.455,-202.214 2.781,-2.78 -9.735,2.781 9.735,2.781 z"
           style="fill:#000000;fill-opacity:1;fill-rule:evenodd;stroke:#000000;stroke-width:0.695331;stroke-linecap:butt;stroke-linejoin:miter;stroke-miterlimit:4;stroke-dasharray:none;stroke-opacity:1"
           id="path517" /></g><path
         d="m 65.934,85.82 c 0.718,0 1.004,0 1.004,0.684 0,0.359 -0.286,0.359 -0.934,0.359 h -2.902 c 0.679,3.692 1.183,6.239 1.468,7.387 0.215,0.859 0.969,1.684 1.903,1.684 0.754,0 1.504,-0.325 1.863,-0.645 -1.398,-0.144 -1.828,-1.183 -1.828,-1.793 0,-0.719 0.539,-1.148 1.219,-1.148 0.718,0 1.793,0.609 1.793,1.972 0,1.504 -1.508,2.332 -3.082,2.332 -1.543,0 -3.051,-1.148 -3.766,-2.546 -0.645,-1.254 -1.004,-2.547 -1.828,-7.243 h -2.403 c -0.683,0 -1.039,0 -1.039,-0.648 0,-0.395 0.215,-0.395 0.93,-0.395 h 2.297 C 59.98,82.488 58.512,74.383 57.688,70.547 c -0.61,-3.117 -1.149,-5.734 -2.942,-5.734 -0.105,0 -1.144,0 -1.793,0.679 1.828,0.145 1.828,1.723 1.828,1.758 0,0.715 -0.535,1.145 -1.218,1.145 -0.715,0 -1.793,-0.61 -1.793,-1.969 0,-1.543 1.578,-2.332 2.976,-2.332 3.66,0 5.164,6.562 5.559,8.355 0.644,2.758 2.402,12.297 2.582,13.371 z"
         style="fill:#000000;fill-opacity:1;fill-rule:nonzero;stroke:none"
         id="path519" /><path
         d="m 82.664,62.695 c 0,0.11 0,0.18 -0.609,0.789 -3.586,3.622 -5.594,9.54 -5.594,16.852 0,6.957 1.684,12.945 5.844,17.176 0.359,0.32 0.359,0.394 0.359,0.5 0,0.215 -0.18,0.289 -0.324,0.289 -0.465,0 -3.406,-2.582 -5.16,-6.098 -1.832,-3.621 -2.657,-7.457 -2.657,-11.867 0,-3.191 0.504,-7.457 2.368,-11.293 2.117,-4.305 5.054,-6.633 5.449,-6.633 0.144,0 0.324,0.071 0.324,0.285 z"
         style="fill:#000000;fill-opacity:1;fill-rule:nonzero;stroke:none"
         id="path521" /><path
         d="m 94.941,94.391 c 0,0.824 0,0.863 -0.718,0.863 -0.86,-0.969 -2.653,-2.297 -6.348,-2.297 v -1.039 c 0.824,0 2.617,0 4.59,0.934 V 74.168 c 0,-1.289 -0.106,-1.719 -3.262,-1.719 H 88.09 v -1.043 c 0.969,0.075 4.449,0.075 5.633,0.075 1.179,0 4.625,0 5.59,-0.075 v 1.043 h -1.11 c -3.156,0 -3.262,0.43 -3.262,1.719 z"
         style="fill:#000000;fill-opacity:1;fill-rule:nonzero;stroke:none"
         id="path523" /><path
         d="m 112.215,80.336 c 0,2.727 -0.36,7.172 -2.367,11.332 -2.118,4.301 -5.055,6.633 -5.45,6.633 -0.144,0 -0.324,-0.074 -0.324,-0.289 0,-0.106 0,-0.18 0.61,-0.789 3.586,-3.621 5.593,-9.535 5.593,-16.852 0,-6.953 -1.683,-12.941 -5.843,-17.176 -0.36,-0.32 -0.36,-0.39 -0.36,-0.5 0,-0.214 0.18,-0.285 0.324,-0.285 0.465,0 3.407,2.578 5.161,6.094 1.828,3.656 2.656,7.531 2.656,11.832 z"
         style="fill:#000000;fill-opacity:1;fill-rule:nonzero;stroke:none"
         id="path525" /></g></g></svg>
